<svg width="50" height="50" viewBox="0 0 50 50" fill="none" xmlns="http://www.w3.org/2000/svg">
<circle cx="25" cy="25" r="25" fill="#1D9BF0"/>
<path d="M34.0566 20.1807C34.0659 20.3919 34.0659 20.5935 34.0659 20.8047C34.0752 27.208 29.3707 34.6 20.7674 34.6C18.23 34.6 15.7388 33.8416 13.5996 32.4208C13.97 32.4688 14.3405 32.488 14.7109 32.488C16.8131 32.488 18.8597 31.7584 20.5174 30.4048C18.5171 30.3664 16.7575 29.0128 16.1463 27.0352C16.8501 27.1792 17.5725 27.1504 18.2578 26.9488C16.0815 26.5072 14.5164 24.52 14.5072 22.2064C14.5072 22.1872 14.5072 22.168 14.5072 22.1488C15.1554 22.5232 15.887 22.7344 16.6279 22.7536C14.5813 21.3328 13.9423 18.5007 15.1832 16.2831C17.5632 19.3167 21.0638 21.1504 24.8237 21.352C24.444 19.6719 24.9626 17.9055 26.1757 16.7151C28.0557 14.8815 31.0191 14.9775 32.7972 16.9263C33.8436 16.7151 34.8531 16.3119 35.7699 15.7455C35.418 16.8687 34.6864 17.8191 33.714 18.4239C34.6401 18.3087 35.5476 18.0495 36.3996 17.6655C35.7699 18.6447 34.9734 19.4895 34.0566 20.1807Z" fill="white"/>
</svg>
