<svg width="22" height="23" viewBox="0 0 22 23" fill="none" xmlns="http://www.w3.org/2000/svg">
<g clip-path="url(#clip0_72_376)">
<path d="M3.14286 0.875C1.40937 0.875 0 2.28437 0 4.01786V19.7321C0 21.4656 1.40937 22.875 3.14286 22.875H18.8571C20.5906 22.875 22 21.4656 22 19.7321V4.01786C22 2.28437 20.5906 0.875 18.8571 0.875H3.14286ZM17.7326 5L12.6353 10.8241L18.6312 18.75H13.9366L10.2634 13.9424L6.05491 18.75H3.72232L9.17321 12.5183L3.42277 5H8.23527L11.5598 9.39509L15.4 5H17.7326ZM15.8763 17.3554L7.53304 6.32098H6.1433L14.5799 17.3554H15.8714H15.8763Z" fill="white"/>
</g>
<defs>
<clipPath id="clip0_72_376">
<rect width="22" height="22" fill="white" transform="translate(0 0.875)"/>
</clipPath>
</defs>
</svg>
