<svg width="48" height="33" viewBox="0 0 48 33" fill="none" xmlns="http://www.w3.org/2000/svg">
<path d="M28.4358 27.2306C29.6787 29.1695 31.5164 30.6519 33.6726 31.4551C35.8287 32.2582 38.1868 32.3387 40.3926 31.6844C42.5983 31.0301 44.5324 29.6763 45.9042 27.8267C47.276 25.977 48.0114 23.7313 47.9999 21.4271C47.9987 19.519 47.486 17.6462 46.5154 16.0044C45.5447 14.3626 44.1517 13.012 42.4819 12.0937C40.812 11.1755 38.9266 10.7232 37.0226 10.7842C35.1187 10.8452 33.266 11.4173 31.6582 12.4406C32.4941 9.95427 34.051 7.30177 36.6162 4.64289C37.107 4.13434 37.376 3.45134 37.364 2.74414C37.352 2.03693 37.0601 1.36346 36.5524 0.871868C36.0447 0.380276 35.3628 0.110836 34.6568 0.12282C33.9507 0.134808 33.2784 0.42724 32.7876 0.935785C23.3055 10.7788 24.537 21.4782 28.4358 27.2179V27.2306ZM2.91183 27.2306C4.15481 29.1695 5.99246 30.6519 8.14861 31.4551C10.3048 32.2582 12.6629 32.3387 14.8686 31.6844C17.0743 31.0301 19.0084 29.6763 20.3803 27.8267C21.7521 25.977 22.4875 23.7313 22.4759 21.4271C22.4748 19.519 21.9621 17.6462 20.9914 16.0044C20.0208 14.3626 18.6278 13.012 16.9579 12.0937C15.2881 11.1755 13.4027 10.7232 11.4987 10.7842C9.59474 10.8452 7.74206 11.4173 6.13423 12.4406C6.97014 9.95427 8.5271 7.30177 11.0923 4.64289C11.583 4.13434 11.852 3.45134 11.8401 2.74414C11.8281 2.03693 11.5361 1.36346 11.0284 0.871868C10.5207 0.380276 9.83887 0.110836 9.13284 0.12282C8.4268 0.134808 7.75444 0.42724 7.26366 0.935785C-2.21848 10.7788 -0.98695 21.4782 2.91183 27.2179V27.2306Z" fill="#FF6900"/>
</svg>
