<svg width="24" height="24" viewBox="0 0 24 24" fill="none" xmlns="http://www.w3.org/2000/svg">
<path d="M8.69192 19.0103C8.55369 18.9449 8.39879 18.9233 8.24797 18.9485L4.76964 19.5282L5.79257 17.2898C5.90482 17.0442 5.87634 16.7572 5.718 16.5384C4.76942 15.2277 4.25093 13.654 4.25093 12C4.25093 7.71979 7.72072 4.25 12.0009 4.25C16.2811 4.25 19.7509 7.71979 19.7509 12C19.7509 16.2802 16.2811 19.75 12.0009 19.75C10.84 19.75 9.71696 19.4951 8.69192 19.0103ZM2.81878 20.1883C2.56898 20.7349 3.03141 21.3386 3.62422 21.2398L8.26829 20.4658C9.43379 20.9804 10.699 21.25 12.0009 21.25C17.1096 21.25 21.2509 17.1086 21.2509 12C21.2509 6.89137 17.1096 2.75 12.0009 2.75C6.89229 2.75 2.75093 6.89137 2.75093 12C2.75093 13.821 3.27916 15.5644 4.25169 17.0528L2.81878 20.1883Z" fill="black" stroke="black" stroke-width="0.5"/>
</svg>
