<svg width="31" height="30" viewBox="0 0 31 30" fill="none" xmlns="http://www.w3.org/2000/svg">
<path d="M27.4049 20.1253C27.0592 18.7937 25.8594 17.8633 24.4857 17.8633C24.2087 17.8633 23.9317 17.9015 23.6642 17.9779L21.4175 10.2386C22.197 10.0055 22.837 9.48391 23.2191 8.76366C23.605 8.03768 23.6795 7.20662 23.4273 6.42332C23.0319 5.19297 21.8435 4.33325 20.5368 4.33325C20.2903 4.33325 20.0439 4.36382 19.805 4.42496C18.8479 4.67141 18.0837 5.36491 17.7379 6.2743C17.2182 5.88456 16.5897 5.6725 15.9325 5.6725C15.6173 5.6725 15.3039 5.72217 15.0021 5.81961C13.5119 6.30296 12.6197 7.92878 13.0133 9.4457C13.3591 10.7773 14.5589 11.7077 15.9325 11.7077C16.2095 11.7077 16.4846 11.6695 16.754 11.5931L18.5365 17.7334C17.7799 17.6703 17.0024 17.9435 16.4483 18.5434C16.3452 18.6542 16.2573 18.7727 16.1789 18.895L9.52091 12.7394C9.63745 12.6515 9.74826 12.5541 9.85143 12.4433C10.8258 11.3887 10.7436 9.73419 9.65465 8.78468C8.65355 7.90968 7.08887 7.97081 6.15655 8.91841C5.47069 9.61574 5.272 10.5996 5.53946 11.4651C5.59105 11.6332 5.44203 11.7937 5.27009 11.7555C4.38553 11.5568 3.42265 11.8319 2.78073 12.5713C1.90955 13.5743 1.97259 15.1389 2.9221 16.0694C3.95376 17.08 5.61015 17.0322 6.5845 15.9796C6.68766 15.8688 6.77555 15.7503 6.85388 15.628L13.5119 21.7836C13.3954 21.8715 13.2846 21.9689 13.1814 22.0797C12.2071 23.1343 12.2892 24.7888 13.3782 25.7383C14.3793 26.6133 15.944 26.5522 16.8763 25.6046C17.2717 25.2015 17.5048 24.7047 17.5812 24.1889C18.1487 24.8385 18.9874 25.2435 19.8834 25.2435C20.1298 25.2435 20.3763 25.2129 20.6151 25.1518C21.5703 24.9053 22.3364 24.2118 22.6822 23.3024C23.2019 23.6922 23.8304 23.9042 24.4876 23.9042C24.8029 23.9042 25.1162 23.8546 25.418 23.7571C26.9082 23.2738 27.8004 21.648 27.4069 20.131L27.4049 20.1253ZM24.4857 22.9719C23.947 22.9719 23.4331 22.7656 23.0414 22.3892C22.9115 22.265 22.7415 22.1963 22.5638 22.1963C22.2447 22.1963 21.9677 22.4122 21.8913 22.7236C21.706 23.4725 21.129 24.0571 20.3839 24.2481C20.2215 24.2902 20.0515 24.3112 19.8834 24.3112C18.9759 24.3112 18.1506 23.717 17.8755 22.8649C17.7016 22.3224 17.7513 21.7454 18.0187 21.2429C18.2862 20.7405 18.7352 20.3756 19.2816 20.217C19.3905 20.1845 19.507 20.1635 19.6388 20.1482C19.7745 20.1329 19.8967 20.0584 19.9732 19.9457C20.0496 19.8311 20.0706 19.6897 20.0324 19.5579L17.5048 10.8499C17.4666 10.7181 17.373 10.6111 17.2469 10.5557C17.1877 10.5289 17.1227 10.5156 17.0597 10.5156C16.989 10.5156 16.9202 10.5309 16.8553 10.5633C16.7368 10.6207 16.626 10.6646 16.5171 10.6971C16.3261 10.7525 16.1293 10.7811 15.9325 10.7811C14.9811 10.7811 14.15 10.1373 13.9112 9.21454C13.638 8.16377 14.257 7.0385 15.2887 6.70225C15.4988 6.63347 15.7166 6.59909 15.9344 6.59909C16.4732 6.59909 16.9871 6.80542 17.3787 7.18178C17.5086 7.30596 17.6787 7.37474 17.8564 7.37474C18.1754 7.37474 18.4524 7.15886 18.5288 6.84745C18.7142 6.09854 19.2911 5.51393 20.0362 5.32288C20.1986 5.28085 20.3686 5.25984 20.5368 5.25984C21.4442 5.25984 22.2696 5.854 22.5447 6.70607C22.7185 7.24865 22.6689 7.82561 22.4014 8.32807C22.1339 8.83053 21.685 9.19543 21.1386 9.354C21.0297 9.38648 20.9131 9.4075 20.7813 9.42278C20.6457 9.43806 20.5234 9.51257 20.447 9.62529C20.3705 9.73992 20.3495 9.88129 20.3877 10.0131L22.9153 18.7211C22.9535 18.8529 23.0471 18.9599 23.1732 19.0153C23.2974 19.0707 23.4407 19.0688 23.5649 19.0077C23.6852 18.9484 23.796 18.9064 23.903 18.8739C24.0941 18.8185 24.2909 18.7899 24.4876 18.7899C25.4391 18.7899 26.2701 19.4337 26.5108 20.3565C26.784 21.4072 26.165 22.5325 25.1334 22.8668C24.9232 22.9356 24.7054 22.97 24.4876 22.97L24.4857 22.9719Z" fill="white"/>
</svg>
