<svg width="57" height="50" viewBox="0 0 57 50" fill="none" xmlns="http://www.w3.org/2000/svg">
<g clip-path="url(#clip0_86_16694)">
<path d="M14.4625 12.3165C14.2282 12.7064 14.5435 13.0835 14.9057 13.075C15.1678 13.0686 15.4384 13.1048 15.709 13.1879C15.9796 13.271 16.2225 13.3925 16.4377 13.5416C16.7338 13.7504 17.2047 13.6141 17.2302 13.1581C17.2729 12.3378 16.8936 11.6176 16.248 11.4216C15.6024 11.2235 14.8844 11.6091 14.4625 12.3144V12.3165Z" fill="#FBD10D"/>
<path d="M41.598 13.7909C41.843 13.6972 42.1115 13.6397 42.3927 13.6269C42.674 13.6141 42.9467 13.646 43.1981 13.7142C43.5475 13.8101 43.946 13.5225 43.8139 13.0878C43.5774 12.2995 42.9787 11.7519 42.3033 11.7839C41.6278 11.8158 41.0845 12.4209 40.9247 13.2263C40.8374 13.6737 41.2592 13.9209 41.598 13.7909Z" fill="#FBD10D"/>
<path d="M51.7107 45.3032C52.1006 44.6938 52.3009 43.9907 52.3009 43.2897C52.3009 41.2826 50.7391 39.4673 47.9885 39.282C47.9501 39.2713 47.9096 39.2649 47.8691 39.2607C44.1895 35.4873 42.5042 26.349 43.5035 20.8583C46.8507 20.5962 49.2051 18.6297 50.085 15.2739C50.4728 13.7888 49.7846 12.6447 48.3571 12.3741C47.6561 12.2399 47.1916 11.8244 46.9359 11.1042C46.9274 11.0808 46.9189 11.0595 46.9082 11.036C45.5574 8.04249 43.2201 7.67176 41.6711 7.5354C41.6711 7.52901 41.6775 7.51835 41.6711 7.51835C41.1107 7.55031 40.4162 7.54818 40.7869 7.13697C41.7755 6.03969 41.9502 5.52194 42.0631 5.12138C42.3146 4.2393 41.3792 3.66402 40.6782 3.77908C36.8303 4.41401 33.0569 7.85286 31.0626 12.5126C30.8027 13.1219 30.3595 14.166 29.8056 15.5083C29.1024 13.8187 27.6685 9.74487 23.5393 7.59932C21.7198 6.65331 19.9322 6.35715 18.0636 6.47434C16.504 6.57022 13.2611 6.76624 11.514 10.6845C11.4607 10.7378 11.0346 11.0978 9.19372 11.296C8.06448 11.4174 7.01834 11.4068 7.00768 11.4068H6.99703C6.50698 11.4046 6.10855 11.7967 6.10003 12.2889C6.03398 17.3662 8.32442 19.5778 10.0396 20.5217C10.0396 20.5217 10.0438 20.5238 10.046 20.5259C11.0793 21.1481 12.3854 21.2951 13.5978 21.2951C14.254 21.2951 14.8527 21.2525 15.3001 21.2077C15.6368 23.3298 16.2611 31.9163 12.0104 39.2862C9.28108 39.4886 7.74489 41.3061 7.74489 43.2918C7.74489 43.9928 7.94303 44.6959 8.33507 45.3053C8.33507 45.3053 9.30025 47.095 12.2448 47.095H21.8604C22.3547 47.095 22.7553 46.6945 22.7553 46.2002C22.7553 45.7058 22.3547 45.3053 21.8604 45.3053H11.9508C10.2825 45.3053 9.53676 44.2932 9.53676 43.2918C9.53676 42.0177 10.6511 41.1164 12.3641 41.0632C13.1503 41.2379 14.1006 41.6832 14.4905 42.7975C14.6546 43.2641 15.1659 43.5092 15.6304 43.3451C16.097 43.181 16.342 42.6718 16.178 42.2052C15.7753 41.0568 14.9635 40.1896 13.8428 39.6783C17.8271 32.4021 17.5245 24.018 17.0899 21.1481C17.0089 20.6175 16.8022 19.9528 16.7596 19.8612C16.5977 19.4968 16.2057 19.2774 15.7987 19.3434C15.021 19.4713 12.9032 19.6928 11.4373 19.2028C11.3947 19.1879 11.3542 19.173 11.3137 19.1581C9.70934 18.4592 8.64828 17.0849 8.17314 15.1247C8.75481 14.9926 9.59641 14.5196 10.144 12.9728C11.8336 12.7043 12.7902 12.21 13.1375 11.4302C13.9621 9.56803 15.1382 8.81165 16.4379 8.4878C17.1112 8.31948 18.8413 8.0851 20.3157 9.07159C20.7269 9.34644 21.0593 9.79814 21.2595 10.3755C21.5919 11.3386 21.3512 12.4146 20.582 13.4053C18.5856 15.9749 18.0828 17.2831 18.266 18.9876C18.3832 20.0614 18.967 20.9435 19.9151 21.4677C21.2169 22.19 22.9193 22.2134 24.2211 21.4101C25.621 20.5451 26.4327 19.0068 26.8248 16.4138C26.8248 16.4095 26.8248 16.4053 26.8269 16.3989C26.486 15.5296 25.947 14.3321 25.2843 13.4991C25.3355 14.2214 25.4399 15.1333 25.2268 16.0963C24.7985 18.0331 24.528 19.0046 23.4392 19.7951C22.5976 20.4066 21.4833 20.2873 20.7802 19.8974C20.3434 19.6566 20.0962 19.2838 20.043 18.7894C19.9428 17.8669 20.0472 16.9997 21.9925 14.4962C23.2176 12.9195 23.6054 10.9189 22.6722 9.15256C22.8959 9.26761 23.1558 9.41889 23.3987 9.5936C23.3987 9.5936 24.6473 10.3841 25.9534 12.0651C26.3326 12.5531 27.66 14.3023 28.8425 17.852C26.1366 24.572 22.18 35.1315 22.18 39.4226C22.18 43.7137 25.6167 47.0844 29.8418 47.0844C34.0668 47.0844 37.5036 43.6476 37.5036 39.4226C37.5036 37.1002 36.1186 32.1464 33.3914 24.6999C32.7671 22.9975 32.1343 21.3356 31.542 19.8186L30.6322 22.4051C33.0228 28.6735 35.7138 36.4972 35.7138 39.4205C35.7138 42.659 33.0804 45.2925 29.8418 45.2925C26.6032 45.2925 23.9697 42.6569 23.9697 39.4205C23.9697 34.8865 29.0598 22.0983 30.7707 17.8711C30.7707 17.8711 30.7707 17.8711 30.7707 17.869C31.7253 15.5104 32.4667 13.7675 32.7075 13.2072C33.9774 10.2413 36.5405 7.03683 39.6662 5.88628C37.331 8.12133 38.1683 9.29318 39.0227 9.29318H41.3366C42.7748 9.41249 44.2769 9.57229 45.2634 11.7306C45.6511 12.7874 46.3756 13.5481 47.3429 13.9252C47.1341 14.4493 46.9721 15.3506 48.0119 15.8215C47.2257 17.6794 45.4999 19.4116 41.7627 19.0387C41.2684 18.9897 40.8316 19.3477 40.7826 19.8399C40.7336 20.332 41.0916 20.7709 41.5837 20.82C41.62 20.8242 41.6541 20.8263 41.6903 20.8285C41.2301 23.6835 41.3962 27.4185 42.1569 30.981C42.9474 34.6819 44.2875 37.7628 45.9814 39.8231C45.0226 40.3452 44.3237 41.1527 43.9594 42.1924C43.7549 42.7762 44.1917 43.3834 44.8031 43.3834C45.1717 43.3834 45.519 43.1533 45.6469 42.7847C46.0347 41.6768 46.9785 41.2294 47.7626 41.0547C51.4614 41.2272 51.3016 45.2946 48.095 45.2946H37.8317C37.3374 45.2946 36.9368 45.6952 36.9368 46.1895C36.9368 46.6838 37.3374 47.0844 37.8317 47.0844H48.095C50.9245 47.0844 51.7086 45.2946 51.7086 45.2946L51.7107 45.3032Z" fill="url(#paint0_linear_86_16694)"/>
</g>
<defs>
<linearGradient id="paint0_linear_86_16694" x1="6.10018" y1="22.4403" x2="52.4171" y2="21.6932" gradientUnits="userSpaceOnUse">
<stop offset="0.432525" stop-color="#FBD10D"/>
<stop offset="0.604584" stop-color="#E77728"/>
</linearGradient>
<clipPath id="clip0_86_16694">
<rect width="46.1987" height="43.3287" fill="white" transform="translate(6.09961 3.76422)"/>
</clipPath>
</defs>
</svg>
