<svg width="153" height="52" viewBox="0 0 153 52" fill="none" xmlns="http://www.w3.org/2000/svg">
<path d="M10.2828 28.5917C9.37235 29.2421 7.77903 29.8599 7.09618 30.0875C7.35631 26.7318 5.96893 24.8306 5.24273 24.2995C-1.52075 18.3165 -0.169641 14.1758 0.820456 12.4309C4.3001 7.44493 6.96575 5.77599 18.6396 2.57839C30.3135 -0.619199 34.098 -0.887887 47.677 2.02561C64.6507 5.66748 68.0975 12.3009 68.3901 15.7477C68.6243 18.5051 64.813 22.4572 63.0574 24.2345C61.3019 26.0119 61.1281 28.4292 61.1064 30.12C60.6902 30.12 58.8519 29.2746 57.9848 28.8519C59.6497 30.3867 62.342 30.8571 63.4801 30.9004C62.2315 33.4758 59.9466 35.3552 58.9603 35.973L63.22 35.7779C62.1274 38.9776 57.7789 41.0348 55.7411 41.6635L58.6677 42.3463C53.3089 48.5895 45.5092 48.893 42.2792 48.2643C35.4117 53.5711 28.5355 50.4755 25.9559 48.2643C17.1633 49.4089 11.3884 44.7525 9.59996 42.2813C10.7966 42.1252 12.0712 41.7827 12.559 41.6309C7.59043 40.3043 5.52454 37.1111 5.11266 35.6804C6.95961 36.2527 8.6353 36.0056 9.24228 35.8105C5.93859 33.7814 4.91756 31.67 4.82001 30.8679C8.59194 30.3997 10.0335 29.1554 10.2828 28.5917Z" fill="black"/>
<path d="M15.8244 14.6621C16.2146 10.578 18.2415 8.73325 19.2061 8.32137C17.06 10.7601 17.4502 15.4426 17.0925 19.4421C16.8064 22.6418 14.7839 25.3601 14.7839 25.3601C14.7839 25.3601 10.2532 32.0586 8.8333 32.6114C10.264 34.3022 13.8084 36.0907 15.4017 36.7735C13.5547 37.8661 11.2504 38.2042 10.3291 38.2368C12.4101 39.7455 17.0275 40.8381 19.0761 41.1958C17.6453 42.3143 15.7052 43.2443 14.9139 43.5695C19.4923 46.4049 24.8857 46.2684 27.0101 45.8457C33.1493 51.5166 39.2147 48.2085 41.4801 45.8457C46.8908 46.6261 51.7337 44.6317 53.4787 43.537C51.3977 42.7826 49.8369 41.6185 49.3166 41.1307C53.6868 40.6885 56.8821 38.9955 57.9335 38.2042C54.4217 37.5539 53.1752 36.8927 52.991 36.6434C55.6964 35.863 58.5405 33.6302 59.6244 32.6114C56.3467 31.5448 53.6413 25.5227 53.6413 25.5227C53.6413 25.5227 51.1917 19.5397 51.2026 17.8163C51.0725 11.7291 49.6959 8.9067 49.0239 8.25636C52.8284 10.7927 51.6578 11.7357 53.0885 18.7267C54.2331 24.3196 57.6409 26.5633 59.2017 26.986C59.2277 25.087 61.5971 22.4228 62.7785 21.3281C68.6575 16.1514 64.9896 12.0175 62.4208 10.5976C60.6519 8.25636 49.9344 5.02636 44.7968 3.704C42.965 3.29213 37.7471 2.53991 31.53 2.82605C25.3128 3.1122 18.7292 4.87461 16.2146 5.72004C10.6217 7.04672 5.9068 10.435 4.24845 11.9632C2.74185 13.3615 0.632598 16.9253 4.24845 19.9949C7.86431 23.0644 8.98505 25.6528 9.09344 26.5632C8.96337 27.3176 9.55951 26.9643 9.87384 26.6933L10.8168 26.108C13.2101 24.5472 14.5454 21.6424 14.9139 20.3851C15.0548 20.1791 15.4342 18.7462 15.8244 14.6621Z" fill="#E77728"/>
<path d="M26.4185 33.2964C26.3617 32.4695 27.0171 31.7676 27.8459 31.7676H40.1536C40.8685 31.7676 41.4737 32.2953 41.5711 33.0036L41.914 35.4995C41.9608 35.8399 41.8835 36.1858 41.6962 36.474L39.7731 39.4325C39.5664 39.7506 39.2417 39.9735 38.8706 40.0523L33.9302 41.1011C33.7322 41.1432 33.5274 41.1427 33.3295 41.0997L28.7285 40.1006C28.2387 39.9943 27.8403 39.6394 27.6782 39.1651L26.6668 36.2047C26.6265 36.0869 26.6018 35.9644 26.5933 35.8402L26.4185 33.2964Z" fill="#DD0202"/>
<path d="M42.3875 32.8909L41.5745 33.2286C41.3802 33.3093 41.2831 33.3497 41.2284 33.4316C41.1737 33.5136 41.1737 33.6188 41.1737 33.8292V35.5481C41.1737 35.6581 41.1737 35.713 41.1559 35.7646C41.1381 35.8161 41.1038 35.86 41.0351 35.9477L41.0351 35.9477C34.7601 43.958 29.258 39.4778 27.1837 36.0813C27.14 36.0099 27.1182 35.9741 27.1061 35.931C27.0939 35.8878 27.0939 35.8434 27.0939 35.7547V33.9325C27.0939 33.7344 27.0939 33.6354 27.0444 33.5562C26.9948 33.4771 26.9057 33.4338 26.7275 33.3474L25.8171 32.9055C25.3977 32.702 25.188 32.6002 25.0354 32.6958C24.8828 32.7914 24.8828 33.0244 24.8828 33.4906V36.0563C24.8828 36.3375 24.8828 36.4781 24.9238 36.615C24.9648 36.7519 25.0395 36.8654 25.1889 37.0925C31.8362 47.1964 39.8291 41.2406 43.1633 36.7822L43.1633 36.7822C43.2238 36.7014 43.254 36.661 43.2706 36.611C43.2873 36.561 43.2873 36.5082 43.2873 36.4027V33.4915C43.2873 33.0508 43.2873 32.8304 43.1426 32.7339C42.998 32.6374 42.7945 32.7219 42.3875 32.8909Z" fill="black"/>
<path d="M19.0307 29.0688C19.0307 29.0688 17.3723 28.6786 17.0146 29.0688C17.0146 28.0933 18.2503 27.2479 19.1282 27.2479C20.0062 27.2479 21.9247 28.386 21.9247 28.386C21.9247 28.386 25.5232 30.5321 26.7697 31.1499C27.7842 31.8002 29.4422 31.7051 30.9968 31.1499C31.9033 30.8262 33.1104 29.8818 33.1104 29.8818V27.4755C31.8206 27.4755 29.2604 26.9813 29.3385 25.0043C29.4165 23.0272 34.1509 22.3379 34.1509 22.3379C34.1509 22.3379 38.7683 23.2874 38.7683 25.0043C38.7683 26.7211 36.2754 27.3671 35.0289 27.4755V29.8818L36.4271 30.8247C38.9764 32.1254 42.3777 30.6947 42.3777 30.6947C42.3777 30.6947 47.4698 27.1764 48.8485 27.1504C50.2272 27.1244 50.9404 28.4185 51.1247 29.0688C50.9512 28.8954 50.3898 28.6136 49.5313 28.8738C48.6729 29.1339 45.1199 31.7135 43.4507 32.9709C39.2105 35.182 35.4625 33.3069 34.1184 32.0929C28.9483 35.4421 25.469 33.3936 24.7861 32.9709C24.2399 32.6327 19.0307 29.0688 19.0307 29.0688Z" fill="black"/>
<circle cx="23.5173" cy="17.7819" r="3.25167" fill="black"/>
<circle cx="44.653" cy="17.7819" r="3.25167" fill="black"/>
<circle cx="43.8729" cy="16.8749" r="1.62583" fill="white"/>
<circle cx="23.9735" cy="16.8749" r="1.62583" fill="white"/>
<path d="M26.2685 12.2346C23.3957 10.9885 21.333 12.1021 20.6562 12.8218C21.4841 11.9437 24.5763 12.6484 26.1759 13.1566C26.2542 13.1815 26.2934 13.194 26.32 13.1745C26.3467 13.155 26.3467 13.114 26.3467 13.0319V12.3534C26.3467 12.3123 26.3467 12.2917 26.336 12.2755C26.3253 12.2593 26.3064 12.251 26.2685 12.2346Z" fill="black"/>
<path d="M41.8702 12.2346C44.7429 10.9885 46.8057 12.1021 47.4824 12.8218C46.6545 11.9437 43.5624 12.6484 41.9628 13.1566C41.8844 13.1815 41.8453 13.194 41.8186 13.1745C41.792 13.155 41.792 13.114 41.792 13.0319V12.3534C41.792 12.3123 41.792 12.2917 41.8027 12.2755C41.8133 12.2593 41.8323 12.251 41.8702 12.2346Z" fill="black"/>
<path d="M75.1364 24.5977C74.6684 24.5977 74.3084 24.4717 74.0564 24.2197C73.8044 23.9677 73.6784 23.6077 73.6784 23.1397V13.3657C73.6784 12.8977 73.8044 12.5377 74.0564 12.2857C74.3084 12.0337 74.6684 11.9077 75.1364 11.9077H79.4924C80.3924 11.9077 81.1604 12.0397 81.7964 12.3037C82.4324 12.5677 82.9124 12.9457 83.2364 13.4377C83.5724 13.9297 83.7404 14.5177 83.7404 15.2017C83.7404 15.9577 83.5244 16.5997 83.0924 17.1277C82.6604 17.6557 82.0664 18.0097 81.3104 18.1897V17.9017C82.1864 18.0577 82.8644 18.4057 83.3444 18.9457C83.8364 19.4737 84.0824 20.1637 84.0824 21.0157C84.0824 22.1437 83.6924 23.0257 82.9124 23.6617C82.1324 24.2857 81.0584 24.5977 79.6904 24.5977H75.1364ZM76.3424 22.5277H79.3124C80.0324 22.5277 80.5604 22.3897 80.8964 22.1137C81.2324 21.8257 81.4004 21.4057 81.4004 20.8537C81.4004 20.3017 81.2324 19.8877 80.8964 19.6117C80.5604 19.3357 80.0324 19.1977 79.3124 19.1977H76.3424V22.5277ZM76.3424 17.1277H79.0064C79.7024 17.1277 80.2184 16.9957 80.5544 16.7317C80.8904 16.4677 81.0584 16.0717 81.0584 15.5437C81.0584 15.0277 80.8904 14.6377 80.5544 14.3737C80.2184 14.1097 79.7024 13.9777 79.0064 13.9777H76.3424V17.1277ZM88.948 24.7957C88.3 24.7957 87.718 24.6697 87.202 24.4177C86.686 24.1657 86.284 23.8237 85.996 23.3917C85.708 22.9597 85.564 22.4737 85.564 21.9337C85.564 21.2857 85.732 20.7757 86.068 20.4037C86.404 20.0197 86.95 19.7497 87.706 19.5937C88.462 19.4257 89.464 19.3417 90.712 19.3417H91.666V20.7457H90.73C90.118 20.7457 89.62 20.7817 89.236 20.8537C88.864 20.9137 88.594 21.0217 88.426 21.1777C88.27 21.3337 88.192 21.5497 88.192 21.8257C88.192 22.1617 88.306 22.4377 88.534 22.6537C88.774 22.8697 89.116 22.9777 89.56 22.9777C89.908 22.9777 90.214 22.8997 90.478 22.7437C90.754 22.5757 90.97 22.3537 91.126 22.0777C91.282 21.7897 91.36 21.4657 91.36 21.1057V19.0357C91.36 18.5077 91.24 18.1357 91 17.9197C90.76 17.6917 90.352 17.5777 89.776 17.5777C89.452 17.5777 89.098 17.6197 88.714 17.7037C88.342 17.7757 87.928 17.9017 87.472 18.0817C87.208 18.2017 86.974 18.2317 86.77 18.1717C86.566 18.0997 86.41 17.9797 86.302 17.8117C86.194 17.6317 86.14 17.4397 86.14 17.2357C86.14 17.0197 86.2 16.8157 86.32 16.6237C86.44 16.4197 86.638 16.2697 86.914 16.1737C87.478 15.9457 88.006 15.7897 88.498 15.7057C89.002 15.6217 89.464 15.5797 89.884 15.5797C90.808 15.5797 91.564 15.7177 92.152 15.9937C92.752 16.2577 93.202 16.6717 93.502 17.2357C93.802 17.7877 93.952 18.5017 93.952 19.3777V23.3737C93.952 23.8177 93.844 24.1597 93.628 24.3997C93.412 24.6397 93.1 24.7597 92.692 24.7597C92.284 24.7597 91.966 24.6397 91.738 24.3997C91.522 24.1597 91.414 23.8177 91.414 23.3737V22.7077L91.54 22.8157C91.468 23.2237 91.312 23.5777 91.072 23.8777C90.844 24.1657 90.55 24.3937 90.19 24.5617C89.83 24.7177 89.416 24.7957 88.948 24.7957ZM97.3475 24.7417C96.9035 24.7417 96.5615 24.6157 96.3215 24.3637C96.0935 24.0997 95.9795 23.7337 95.9795 23.2657V17.1097C95.9795 16.6297 96.0935 16.2637 96.3215 16.0117C96.5615 15.7477 96.9035 15.6157 97.3475 15.6157C97.7795 15.6157 98.1095 15.7477 98.3375 16.0117C98.5775 16.2637 98.6975 16.6297 98.6975 17.1097V23.2657C98.6975 23.7337 98.5835 24.0997 98.3555 24.3637C98.1275 24.6157 97.7915 24.7417 97.3475 24.7417ZM97.3475 14.1397C96.8435 14.1397 96.4535 14.0257 96.1775 13.7977C95.9135 13.5577 95.7815 13.2217 95.7815 12.7897C95.7815 12.3457 95.9135 12.0097 96.1775 11.7817C96.4535 11.5417 96.8435 11.4217 97.3475 11.4217C97.8515 11.4217 98.2355 11.5417 98.4995 11.7817C98.7635 12.0097 98.8955 12.3457 98.8955 12.7897C98.8955 13.2217 98.7635 13.5577 98.4995 13.7977C98.2355 14.0257 97.8515 14.1397 97.3475 14.1397ZM103.208 27.9997C102.896 27.9997 102.638 27.9157 102.434 27.7477C102.23 27.5797 102.11 27.3577 102.074 27.0817C102.038 26.8177 102.086 26.5357 102.218 26.2357L103.424 23.5717V24.6877L100.238 17.3797C100.118 17.0677 100.076 16.7797 100.112 16.5157C100.16 16.2397 100.292 16.0237 100.508 15.8677C100.736 15.6997 101.048 15.6157 101.444 15.6157C101.768 15.6157 102.026 15.6937 102.218 15.8497C102.422 15.9937 102.608 16.2757 102.776 16.6957L104.9 22.0957H104.324L106.52 16.6777C106.688 16.2697 106.874 15.9937 107.078 15.8497C107.294 15.6937 107.582 15.6157 107.942 15.6157C108.254 15.6157 108.5 15.6997 108.68 15.8677C108.872 16.0237 108.986 16.2337 109.022 16.4977C109.07 16.7617 109.022 17.0497 108.878 17.3617L104.648 26.9557C104.468 27.3637 104.264 27.6397 104.036 27.7837C103.82 27.9277 103.544 27.9997 103.208 27.9997ZM113.652 24.7957C112.908 24.7957 112.29 24.6577 111.798 24.3817C111.306 24.1057 110.94 23.6917 110.7 23.1397C110.472 22.5757 110.358 21.8797 110.358 21.0517V16.9837C110.358 16.5277 110.472 16.1857 110.7 15.9577C110.94 15.7297 111.276 15.6157 111.708 15.6157C112.14 15.6157 112.476 15.7297 112.716 15.9577C112.956 16.1857 113.076 16.5277 113.076 16.9837V21.1237C113.076 21.6517 113.184 22.0477 113.4 22.3117C113.616 22.5637 113.958 22.6897 114.426 22.6897C114.942 22.6897 115.362 22.5097 115.686 22.1497C116.022 21.7777 116.19 21.2917 116.19 20.6917V16.9837C116.19 16.5277 116.304 16.1857 116.532 15.9577C116.772 15.7297 117.108 15.6157 117.54 15.6157C117.984 15.6157 118.32 15.7297 118.548 15.9577C118.788 16.1857 118.908 16.5277 118.908 16.9837V23.3737C118.908 24.2977 118.47 24.7597 117.594 24.7597C117.162 24.7597 116.832 24.6397 116.604 24.3997C116.376 24.1597 116.262 23.8177 116.262 23.3737V22.1677L116.532 22.8697C116.268 23.4817 115.89 23.9557 115.398 24.2917C114.906 24.6277 114.324 24.7957 113.652 24.7957Z" fill="black"/>
<path d="M73.6804 40.6677C73.5471 40.6677 73.4437 40.631 73.3704 40.5577C73.3037 40.4777 73.2704 40.371 73.2704 40.2377V33.9677C73.2704 33.8277 73.3071 33.7243 73.3804 33.6577C73.4537 33.5843 73.5571 33.5477 73.6904 33.5477H76.0604C76.8137 33.5477 77.3937 33.7343 77.8004 34.1077C78.2071 34.4743 78.4104 34.9943 78.4104 35.6677C78.4104 36.3343 78.2071 36.8543 77.8004 37.2277C77.3937 37.601 76.8137 37.7877 76.0604 37.7877H74.0904V40.2377C74.0904 40.371 74.0571 40.4777 73.9904 40.5577C73.9237 40.631 73.8204 40.6677 73.6804 40.6677ZM74.0904 37.0977H75.9604C76.5004 37.0977 76.9071 36.9777 77.1804 36.7377C77.4604 36.491 77.6004 36.1343 77.6004 35.6677C77.6004 35.1943 77.4604 34.8377 77.1804 34.5977C76.9071 34.351 76.5004 34.2277 75.9604 34.2277H74.0904V37.0977ZM80.7744 40.6877C80.441 40.6877 80.141 40.6243 79.8744 40.4977C79.6144 40.3643 79.4077 40.1843 79.2544 39.9577C79.101 39.731 79.0244 39.4777 79.0244 39.1977C79.0244 38.8377 79.1144 38.5543 79.2944 38.3477C79.481 38.141 79.7844 37.9943 80.2044 37.9077C80.631 37.821 81.211 37.7777 81.9444 37.7777H82.3944V38.3077H81.9544C81.4144 38.3077 80.9877 38.3343 80.6744 38.3877C80.3677 38.4343 80.151 38.5177 80.0244 38.6377C79.9044 38.7577 79.8444 38.9277 79.8444 39.1477C79.8444 39.421 79.9377 39.6443 80.1244 39.8177C80.3177 39.991 80.5777 40.0777 80.9044 40.0777C81.171 40.0777 81.4044 40.0143 81.6044 39.8877C81.811 39.761 81.971 39.5877 82.0844 39.3677C82.2044 39.1477 82.2644 38.8943 82.2644 38.6077V37.4677C82.2644 37.0543 82.181 36.7577 82.0144 36.5777C81.8477 36.391 81.5744 36.2977 81.1944 36.2977C80.961 36.2977 80.7277 36.3277 80.4944 36.3877C80.261 36.4477 80.0144 36.5443 79.7544 36.6777C79.661 36.7243 79.581 36.741 79.5144 36.7277C79.4477 36.7077 79.3944 36.671 79.3544 36.6177C79.3144 36.5643 79.291 36.5043 79.2844 36.4377C79.2777 36.3643 79.291 36.2943 79.3244 36.2277C79.3644 36.161 79.4244 36.1077 79.5044 36.0677C79.7977 35.921 80.0877 35.8143 80.3744 35.7477C80.661 35.681 80.9344 35.6477 81.1944 35.6477C81.6144 35.6477 81.961 35.7177 82.2344 35.8577C82.5077 35.991 82.711 36.1977 82.8444 36.4777C82.9777 36.751 83.0444 37.1043 83.0444 37.5377V40.2477C83.0444 40.381 83.011 40.4843 82.9444 40.5577C82.8844 40.631 82.7944 40.6677 82.6744 40.6677C82.5477 40.6677 82.451 40.631 82.3844 40.5577C82.3177 40.4843 82.2844 40.381 82.2844 40.2477V39.4677H82.3744C82.321 39.721 82.2177 39.9377 82.0644 40.1177C81.9177 40.2977 81.7344 40.4377 81.5144 40.5377C81.2944 40.6377 81.0477 40.6877 80.7744 40.6877ZM86.1783 40.6677C86.0649 40.6677 85.9649 40.6377 85.8783 40.5777C85.7916 40.5177 85.7216 40.421 85.6683 40.2877L84.1783 36.2377C84.1383 36.1243 84.1249 36.0243 84.1383 35.9377C84.1583 35.851 84.2016 35.7843 84.2683 35.7377C84.3349 35.691 84.4183 35.6677 84.5183 35.6677C84.6183 35.6677 84.6983 35.691 84.7583 35.7377C84.8249 35.7843 84.8783 35.871 84.9183 35.9977L86.3183 39.9977H86.0783L87.5183 35.9977C87.5649 35.8777 87.6216 35.7943 87.6883 35.7477C87.7616 35.6943 87.8549 35.6677 87.9683 35.6677C88.0749 35.6677 88.1649 35.6943 88.2383 35.7477C88.3116 35.801 88.3683 35.8843 88.4083 35.9977L89.8183 39.9977H89.5883L91.0083 35.9777C91.0549 35.8577 91.1116 35.7777 91.1783 35.7377C91.2449 35.691 91.3249 35.6677 91.4183 35.6677C91.5249 35.6677 91.6049 35.6943 91.6583 35.7477C91.7183 35.801 91.7516 35.871 91.7583 35.9577C91.7649 36.0443 91.7483 36.1377 91.7083 36.2377L90.2183 40.2877C90.1716 40.4143 90.1016 40.511 90.0083 40.5777C89.9216 40.6377 89.8216 40.6677 89.7083 40.6677C89.5949 40.6677 89.4949 40.6377 89.4083 40.5777C89.3216 40.511 89.2549 40.4143 89.2083 40.2877L87.7283 36.2277H88.1583L86.6883 40.2877C86.6416 40.4143 86.5749 40.511 86.4883 40.5777C86.4016 40.6377 86.2983 40.6677 86.1783 40.6677ZM93.6251 40.6677C93.4984 40.6677 93.3984 40.631 93.3251 40.5577C93.2584 40.4843 93.2251 40.381 93.2251 40.2477V36.3677H92.5851C92.4784 36.3677 92.3917 36.341 92.3251 36.2877C92.2651 36.2277 92.2351 36.1477 92.2351 36.0477C92.2351 35.9477 92.2651 35.871 92.3251 35.8177C92.3917 35.7643 92.4784 35.7377 92.5851 35.7377H93.4451L93.2251 35.9477V35.5677C93.2251 34.9343 93.3784 34.451 93.6851 34.1177C93.9984 33.7843 94.4551 33.591 95.0551 33.5377L95.3451 33.5077C95.4384 33.501 95.5117 33.5177 95.5651 33.5577C95.6251 33.5977 95.6617 33.6477 95.6751 33.7077C95.6951 33.7677 95.6984 33.831 95.6851 33.8977C95.6717 33.9577 95.6417 34.011 95.5951 34.0577C95.5484 34.1043 95.4917 34.131 95.4251 34.1377L95.1951 34.1577C94.7884 34.191 94.4917 34.3143 94.3051 34.5277C94.1251 34.741 94.0351 35.0543 94.0351 35.4677V35.8877L93.9151 35.7377H95.1151C95.2284 35.7377 95.3151 35.7643 95.3751 35.8177C95.4351 35.871 95.4651 35.9477 95.4651 36.0477C95.4651 36.1477 95.4351 36.2277 95.3751 36.2877C95.3151 36.341 95.2284 36.3677 95.1151 36.3677H94.0351V40.2477C94.0351 40.5277 93.8984 40.6677 93.6251 40.6677ZM98.3484 40.6877C97.8351 40.6877 97.3918 40.5877 97.0184 40.3877C96.6518 40.181 96.3651 39.891 96.1584 39.5177C95.9584 39.1443 95.8584 38.6977 95.8584 38.1777C95.8584 37.671 95.9584 37.231 96.1584 36.8577C96.3584 36.4777 96.6318 36.181 96.9784 35.9677C97.3318 35.7543 97.7384 35.6477 98.1984 35.6477C98.5251 35.6477 98.8184 35.7043 99.0784 35.8177C99.3384 35.9243 99.5584 36.081 99.7384 36.2877C99.9251 36.4943 100.065 36.7443 100.158 37.0377C100.258 37.331 100.308 37.661 100.308 38.0277C100.308 38.1343 100.278 38.2143 100.218 38.2677C100.158 38.3143 100.072 38.3377 99.9584 38.3377H96.4784V37.8077H99.7684L99.6084 37.9377C99.6084 37.5777 99.5551 37.2743 99.4484 37.0277C99.3418 36.7743 99.1851 36.581 98.9784 36.4477C98.7784 36.3143 98.5251 36.2477 98.2184 36.2477C97.8784 36.2477 97.5884 36.3277 97.3484 36.4877C97.1151 36.641 96.9384 36.8577 96.8184 37.1377C96.6984 37.411 96.6384 37.731 96.6384 38.0977V38.1577C96.6384 38.771 96.7851 39.2377 97.0784 39.5577C97.3784 39.8777 97.8018 40.0377 98.3484 40.0377C98.5751 40.0377 98.7984 40.0077 99.0184 39.9477C99.2451 39.8877 99.4651 39.7877 99.6784 39.6477C99.7718 39.5877 99.8551 39.561 99.9284 39.5677C100.008 39.5677 100.072 39.591 100.118 39.6377C100.165 39.6777 100.195 39.731 100.208 39.7977C100.228 39.8577 100.222 39.9243 100.188 39.9977C100.162 40.071 100.105 40.1343 100.018 40.1877C99.7984 40.3477 99.5384 40.471 99.2384 40.5577C98.9384 40.6443 98.6418 40.6877 98.3484 40.6877ZM103.541 40.6877C103.054 40.6877 102.634 40.581 102.281 40.3677C101.927 40.1543 101.654 39.8577 101.461 39.4777C101.274 39.091 101.181 38.6443 101.181 38.1377C101.181 37.751 101.234 37.4043 101.341 37.0977C101.447 36.791 101.604 36.531 101.811 36.3177C102.017 36.0977 102.264 35.931 102.551 35.8177C102.844 35.7043 103.174 35.6477 103.541 35.6477C103.781 35.6477 104.031 35.6843 104.291 35.7577C104.551 35.831 104.787 35.9577 105.001 36.1377C105.067 36.1843 105.111 36.241 105.131 36.3077C105.151 36.3743 105.151 36.441 105.131 36.5077C105.111 36.5677 105.077 36.621 105.031 36.6677C104.984 36.7077 104.924 36.731 104.851 36.7377C104.784 36.7443 104.714 36.721 104.641 36.6677C104.467 36.5343 104.291 36.441 104.111 36.3877C103.931 36.3343 103.757 36.3077 103.591 36.3077C103.331 36.3077 103.104 36.351 102.911 36.4377C102.717 36.5177 102.554 36.6343 102.421 36.7877C102.287 36.941 102.184 37.131 102.111 37.3577C102.044 37.5843 102.011 37.8477 102.011 38.1477C102.011 38.7277 102.147 39.1877 102.421 39.5277C102.694 39.861 103.084 40.0277 103.591 40.0277C103.757 40.0277 103.927 40.001 104.101 39.9477C104.281 39.8943 104.461 39.801 104.641 39.6677C104.714 39.6143 104.784 39.591 104.851 39.5977C104.917 39.6043 104.974 39.631 105.021 39.6777C105.067 39.7177 105.097 39.771 105.111 39.8377C105.131 39.9043 105.131 39.971 105.111 40.0377C105.091 40.0977 105.047 40.151 104.981 40.1977C104.767 40.371 104.534 40.4977 104.281 40.5777C104.027 40.651 103.781 40.6877 103.541 40.6877ZM108.06 40.6877C107.68 40.6877 107.36 40.621 107.1 40.4877C106.846 40.3477 106.656 40.1477 106.53 39.8877C106.403 39.621 106.34 39.2977 106.34 38.9177V36.3677H105.67C105.556 36.3677 105.47 36.341 105.41 36.2877C105.35 36.2277 105.32 36.1477 105.32 36.0477C105.32 35.9477 105.35 35.871 105.41 35.8177C105.47 35.7643 105.556 35.7377 105.67 35.7377H106.34V34.5877C106.34 34.4543 106.376 34.3543 106.45 34.2877C106.523 34.2143 106.623 34.1777 106.75 34.1777C106.876 34.1777 106.973 34.2143 107.04 34.2877C107.113 34.3543 107.15 34.4543 107.15 34.5877V35.7377H108.41C108.523 35.7377 108.61 35.7643 108.67 35.8177C108.73 35.871 108.76 35.9477 108.76 36.0477C108.76 36.1477 108.73 36.2277 108.67 36.2877C108.61 36.341 108.523 36.3677 108.41 36.3677H107.15V38.8377C107.15 39.2177 107.23 39.5077 107.39 39.7077C107.55 39.901 107.81 39.9977 108.17 39.9977C108.296 39.9977 108.403 39.9843 108.49 39.9577C108.583 39.931 108.66 39.9177 108.72 39.9177C108.78 39.911 108.83 39.931 108.87 39.9777C108.91 40.0243 108.93 40.1043 108.93 40.2177C108.93 40.2977 108.913 40.371 108.88 40.4377C108.853 40.5043 108.803 40.551 108.73 40.5777C108.65 40.6043 108.543 40.6277 108.41 40.6477C108.283 40.6743 108.166 40.6877 108.06 40.6877ZM111.144 40.6877C110.664 40.6877 110.298 40.541 110.044 40.2477C109.791 39.9543 109.664 39.5343 109.664 38.9877V33.8877C109.664 33.7543 109.698 33.6543 109.764 33.5877C109.831 33.5143 109.931 33.4777 110.064 33.4777C110.191 33.4777 110.291 33.5143 110.364 33.5877C110.438 33.6543 110.474 33.7543 110.474 33.8877V38.9277C110.474 39.2877 110.544 39.5577 110.684 39.7377C110.831 39.911 111.044 39.9977 111.324 39.9977C111.384 39.9977 111.438 39.9943 111.484 39.9877C111.531 39.981 111.578 39.9777 111.624 39.9777C111.698 39.971 111.748 39.9877 111.774 40.0277C111.808 40.0677 111.824 40.1477 111.824 40.2677C111.824 40.3877 111.798 40.4777 111.744 40.5377C111.691 40.5977 111.604 40.6377 111.484 40.6577C111.431 40.6643 111.374 40.671 111.314 40.6777C111.254 40.6843 111.198 40.6877 111.144 40.6877ZM113.596 42.4677C113.496 42.4677 113.416 42.441 113.356 42.3877C113.296 42.3343 113.259 42.261 113.246 42.1677C113.239 42.081 113.256 41.991 113.296 41.8977L113.986 40.3477V40.6977L112.066 36.2377C112.026 36.1377 112.013 36.0443 112.026 35.9577C112.039 35.871 112.079 35.801 112.146 35.7477C112.213 35.6943 112.306 35.6677 112.426 35.6677C112.533 35.6677 112.616 35.691 112.676 35.7377C112.736 35.7843 112.789 35.8677 112.836 35.9877L114.476 40.0077H114.206L115.866 35.9877C115.919 35.8677 115.976 35.7843 116.036 35.7377C116.096 35.691 116.183 35.6677 116.296 35.6677C116.403 35.6677 116.483 35.6943 116.536 35.7477C116.596 35.801 116.629 35.871 116.636 35.9577C116.649 36.0377 116.636 36.1277 116.596 36.2277L114.036 42.1477C113.983 42.2677 113.923 42.351 113.856 42.3977C113.796 42.4443 113.709 42.4677 113.596 42.4677ZM120.631 42.4677C120.497 42.4677 120.397 42.431 120.331 42.3577C120.264 42.291 120.231 42.191 120.231 42.0577V36.0777C120.231 35.9443 120.264 35.8443 120.331 35.7777C120.397 35.7043 120.494 35.6677 120.621 35.6677C120.754 35.6677 120.854 35.7043 120.921 35.7777C120.994 35.8443 121.031 35.9443 121.031 36.0777V37.0277L120.921 36.8877C121.027 36.5077 121.237 36.2077 121.551 35.9877C121.871 35.761 122.251 35.6477 122.691 35.6477C123.124 35.6477 123.501 35.751 123.821 35.9577C124.147 36.1577 124.397 36.4477 124.571 36.8277C124.751 37.201 124.841 37.6477 124.841 38.1677C124.841 38.681 124.751 39.1277 124.571 39.5077C124.397 39.881 124.151 40.171 123.831 40.3777C123.511 40.5843 123.131 40.6877 122.691 40.6877C122.251 40.6877 121.874 40.5777 121.561 40.3577C121.247 40.131 121.034 39.831 120.921 39.4577H121.041V42.0577C121.041 42.191 121.004 42.291 120.931 42.3577C120.857 42.431 120.757 42.4677 120.631 42.4677ZM122.521 40.0377C122.827 40.0377 123.091 39.9643 123.311 39.8177C123.537 39.671 123.711 39.4577 123.831 39.1777C123.957 38.8977 124.021 38.561 124.021 38.1677C124.021 37.561 123.884 37.0977 123.611 36.7777C123.344 36.4577 122.981 36.2977 122.521 36.2977C122.221 36.2977 121.957 36.371 121.731 36.5177C121.504 36.6577 121.327 36.8677 121.201 37.1477C121.081 37.421 121.021 37.761 121.021 38.1677C121.021 38.7677 121.157 39.231 121.431 39.5577C121.704 39.8777 122.067 40.0377 122.521 40.0377ZM128.081 40.6877C127.607 40.6877 127.197 40.5843 126.851 40.3777C126.504 40.171 126.234 39.881 126.041 39.5077C125.854 39.1277 125.761 38.681 125.761 38.1677C125.761 37.781 125.814 37.4343 125.921 37.1277C126.027 36.8143 126.184 36.5477 126.391 36.3277C126.597 36.1077 126.841 35.941 127.121 35.8277C127.407 35.7077 127.727 35.6477 128.081 35.6477C128.554 35.6477 128.964 35.751 129.311 35.9577C129.657 36.1643 129.924 36.4577 130.111 36.8377C130.304 37.211 130.401 37.6543 130.401 38.1677C130.401 38.5543 130.347 38.901 130.241 39.2077C130.134 39.5143 129.977 39.781 129.771 40.0077C129.564 40.2277 129.317 40.3977 129.031 40.5177C128.751 40.631 128.434 40.6877 128.081 40.6877ZM128.081 40.0377C128.381 40.0377 128.644 39.9643 128.871 39.8177C129.097 39.671 129.271 39.4577 129.391 39.1777C129.517 38.8977 129.581 38.561 129.581 38.1677C129.581 37.561 129.444 37.0977 129.171 36.7777C128.904 36.4577 128.541 36.2977 128.081 36.2977C127.774 36.2977 127.507 36.371 127.281 36.5177C127.061 36.6577 126.887 36.8677 126.761 37.1477C126.641 37.421 126.581 37.761 126.581 38.1677C126.581 38.7677 126.717 39.231 126.991 39.5577C127.264 39.8777 127.627 40.0377 128.081 40.0377ZM133.637 40.6877C133.164 40.6877 132.754 40.5843 132.407 40.3777C132.061 40.171 131.791 39.881 131.597 39.5077C131.411 39.1277 131.317 38.681 131.317 38.1677C131.317 37.781 131.371 37.4343 131.477 37.1277C131.584 36.8143 131.741 36.5477 131.947 36.3277C132.154 36.1077 132.397 35.941 132.677 35.8277C132.964 35.7077 133.284 35.6477 133.637 35.6477C134.111 35.6477 134.521 35.751 134.867 35.9577C135.214 36.1643 135.481 36.4577 135.667 36.8377C135.861 37.211 135.957 37.6543 135.957 38.1677C135.957 38.5543 135.904 38.901 135.797 39.2077C135.691 39.5143 135.534 39.781 135.327 40.0077C135.121 40.2277 134.874 40.3977 134.587 40.5177C134.307 40.631 133.991 40.6877 133.637 40.6877ZM133.637 40.0377C133.937 40.0377 134.201 39.9643 134.427 39.8177C134.654 39.671 134.827 39.4577 134.947 39.1777C135.074 38.8977 135.137 38.561 135.137 38.1677C135.137 37.561 135.001 37.0977 134.727 36.7777C134.461 36.4577 134.097 36.2977 133.637 36.2977C133.331 36.2977 133.064 36.371 132.837 36.5177C132.617 36.6577 132.444 36.8677 132.317 37.1477C132.197 37.421 132.137 37.761 132.137 38.1677C132.137 38.7677 132.274 39.231 132.547 39.5577C132.821 39.8777 133.184 40.0377 133.637 40.0377ZM139.234 40.6877C138.747 40.6877 138.327 40.581 137.974 40.3677C137.621 40.1543 137.347 39.8577 137.154 39.4777C136.967 39.091 136.874 38.6443 136.874 38.1377C136.874 37.751 136.927 37.4043 137.034 37.0977C137.141 36.791 137.297 36.531 137.504 36.3177C137.711 36.0977 137.957 35.931 138.244 35.8177C138.537 35.7043 138.867 35.6477 139.234 35.6477C139.474 35.6477 139.724 35.6843 139.984 35.7577C140.244 35.831 140.481 35.9577 140.694 36.1377C140.761 36.1843 140.804 36.241 140.824 36.3077C140.844 36.3743 140.844 36.441 140.824 36.5077C140.804 36.5677 140.771 36.621 140.724 36.6677C140.677 36.7077 140.617 36.731 140.544 36.7377C140.477 36.7443 140.407 36.721 140.334 36.6677C140.161 36.5343 139.984 36.441 139.804 36.3877C139.624 36.3343 139.451 36.3077 139.284 36.3077C139.024 36.3077 138.797 36.351 138.604 36.4377C138.411 36.5177 138.247 36.6343 138.114 36.7877C137.981 36.941 137.877 37.131 137.804 37.3577C137.737 37.5843 137.704 37.8477 137.704 38.1477C137.704 38.7277 137.841 39.1877 138.114 39.5277C138.387 39.861 138.777 40.0277 139.284 40.0277C139.451 40.0277 139.621 40.001 139.794 39.9477C139.974 39.8943 140.154 39.801 140.334 39.6677C140.407 39.6143 140.477 39.591 140.544 39.5977C140.611 39.6043 140.667 39.631 140.714 39.6777C140.761 39.7177 140.791 39.771 140.804 39.8377C140.824 39.9043 140.824 39.971 140.804 40.0377C140.784 40.0977 140.741 40.151 140.674 40.1977C140.461 40.371 140.227 40.4977 139.974 40.5777C139.721 40.651 139.474 40.6877 139.234 40.6877ZM142.203 40.6677C142.07 40.6677 141.97 40.631 141.903 40.5577C141.836 40.4843 141.803 40.381 141.803 40.2477V33.8877C141.803 33.7543 141.836 33.6543 141.903 33.5877C141.97 33.5143 142.07 33.4777 142.203 33.4777C142.33 33.4777 142.43 33.5143 142.503 33.5877C142.576 33.6543 142.613 33.7543 142.613 33.8877V36.8177H142.483C142.623 36.431 142.85 36.141 143.163 35.9477C143.483 35.7477 143.85 35.6477 144.263 35.6477C144.65 35.6477 144.97 35.7177 145.223 35.8577C145.483 35.9977 145.676 36.211 145.803 36.4977C145.93 36.7777 145.993 37.1343 145.993 37.5677V40.2477C145.993 40.381 145.956 40.4843 145.883 40.5577C145.816 40.631 145.72 40.6677 145.593 40.6677C145.46 40.6677 145.356 40.631 145.283 40.5577C145.216 40.4843 145.183 40.381 145.183 40.2477V37.6177C145.183 37.1643 145.093 36.8343 144.913 36.6277C144.74 36.4143 144.46 36.3077 144.073 36.3077C143.626 36.3077 143.27 36.4477 143.003 36.7277C142.743 37.001 142.613 37.3677 142.613 37.8277V40.2477C142.613 40.5277 142.476 40.6677 142.203 40.6677ZM148.518 42.4677C148.418 42.4677 148.338 42.441 148.278 42.3877C148.218 42.3343 148.181 42.261 148.168 42.1677C148.161 42.081 148.178 41.991 148.218 41.8977L148.908 40.3477V40.6977L146.988 36.2377C146.948 36.1377 146.934 36.0443 146.948 35.9577C146.961 35.871 147.001 35.801 147.068 35.7477C147.134 35.6943 147.228 35.6677 147.348 35.6677C147.454 35.6677 147.538 35.691 147.598 35.7377C147.658 35.7843 147.711 35.8677 147.758 35.9877L149.398 40.0077H149.128L150.788 35.9877C150.841 35.8677 150.898 35.7843 150.958 35.7377C151.018 35.691 151.104 35.6677 151.218 35.6677C151.324 35.6677 151.404 35.6943 151.458 35.7477C151.518 35.801 151.551 35.871 151.558 35.9577C151.571 36.0377 151.558 36.1277 151.518 36.2277L148.958 42.1477C148.904 42.2677 148.844 42.351 148.778 42.3977C148.718 42.4443 148.631 42.4677 148.518 42.4677Z" fill="black"/>
</svg>
