<svg width="50" height="52" viewBox="0 0 50 52" fill="none" xmlns="http://www.w3.org/2000/svg">
<path d="M41.2732 13.7277C39.3383 14.2993 38.8402 16.7744 40.1487 19.2725C41.4571 21.7707 44.0905 23.3313 46.0192 22.7706C47.9542 22.199 48.4522 19.724 47.1438 17.2258C45.8354 14.7277 43.2019 13.167 41.2732 13.7277Z" fill="#FF6900"/>
<path d="M20.6014 41.504C21.1571 39.842 19.2338 37.4354 16.2959 36.1258C13.3581 34.8162 10.5252 35.0844 9.96958 36.7464C9.4139 38.4084 11.3372 40.815 14.2751 42.1246C17.2129 43.4342 20.0457 43.166 20.6014 41.504Z" fill="#FF6900"/>
<path d="M34.2588 23.6887C36.8167 22.42 36.0176 17.8084 32.4621 13.3968C28.9066 8.9851 23.9443 6.4295 21.3798 7.70959C18.8219 8.97831 19.6209 13.5898 23.1764 18.0015C26.7319 22.4132 31.6943 24.9688 34.2588 23.6887Z" fill="#FF6900"/>
<path d="M24.1335 32.0522C25.6775 30.1779 23.2501 26.098 18.7172 22.9532C14.1698 19.8 9.2495 18.7716 7.69964 20.6562C6.15571 22.5305 8.58311 26.6104 13.116 29.7552C17.6634 32.9084 22.5837 33.9368 24.1335 32.0522Z" fill="#FF6900"/>
</svg>
