<svg width="15" height="15" viewBox="0 0 15 15" fill="none" xmlns="http://www.w3.org/2000/svg">
<g clip-path="url(#clip0_63_11222)">
<path d="M9.84849 0C10.7615 0 11.5017 1.41736 11.5017 2.6181C11.5017 3.81883 10.7615 4.79249 9.84849 4.79249C8.93543 4.79249 8.19531 3.81901 8.19531 2.6181C8.19531 1.41718 8.93543 0 9.84849 0Z" fill="#E77728"/>
<path d="M5.15122 0C6.06428 0 6.8044 1.41736 6.8044 2.6181C6.8044 3.81883 6.06428 4.79249 5.15122 4.79249C4.23816 4.79249 3.49805 3.81901 3.49805 2.6181C3.49805 1.41718 4.23816 0 5.15122 0Z" fill="#E77728"/>
<path d="M0.200305 6.33314C-0.187401 5.34255 -0.0176365 3.91762 0.756363 3.60213C1.53036 3.28664 2.61548 4.19998 3.00319 5.19057C3.39089 6.18115 3.07783 7.23999 2.30383 7.55548C1.52983 7.87097 0.588011 7.32373 0.200305 6.33314Z" fill="#E77728"/>
<path d="M14.7994 6.33314C14.4117 7.32373 13.4699 7.87097 12.6959 7.55548C11.9219 7.23999 11.6086 6.18115 11.9965 5.19057C12.3842 4.19998 13.4693 3.28664 14.2433 3.60213C15.0173 3.91762 15.1871 5.34255 14.7994 6.33314Z" fill="#E77728"/>
<path d="M13.4144 11.8049C13.237 10.9936 12.8144 10.262 12.3469 9.58383C11.2515 7.99521 9.49708 6.39111 7.49978 6.39111C5.51078 6.39111 3.74837 7.99485 2.65267 9.58383C2.18502 10.262 1.76237 10.9934 1.5852 11.8049C1.40784 12.6163 1.5049 13.5235 1.99743 14.1826C2.48996 14.8416 3.42296 15.1706 4.15249 14.8139C4.58625 14.6018 4.93725 14.1741 5.41584 14.1329C5.85508 14.095 6.24331 14.397 6.60984 14.6495C6.87473 14.8319 7.19396 14.9979 7.49978 15.0001C7.80561 14.9979 8.12484 14.8319 8.38973 14.6495C8.75608 14.397 9.14431 14.0952 9.58373 14.1329C10.0623 14.1739 10.4133 14.6018 10.8471 14.8139C11.5766 15.1706 12.5096 14.8416 13.0021 14.1826C13.4947 13.5235 13.5917 12.6163 13.4144 11.8049ZM9.23961 10.8276C9.01426 11.2477 8.65867 11.6179 8.35831 11.9059C8.19684 12.0607 8.02726 12.2055 7.85061 12.3395C7.85026 12.3397 7.8499 12.34 7.84955 12.3402C7.64202 12.4962 7.35755 12.4962 7.15002 12.3402C7.14967 12.3399 7.14931 12.3397 7.14896 12.3395C6.97231 12.2057 6.80273 12.0607 6.64125 11.9059C6.3409 11.6179 5.98531 11.2477 5.75996 10.8276C5.57378 10.4806 5.47655 10.0994 5.5729 9.70214C5.6652 9.32146 5.95973 8.98706 6.32078 8.94024C6.73831 8.88622 7.22431 9.18604 7.49978 9.53035C7.77508 9.18604 8.26125 8.88622 8.67878 8.94024C9.03984 8.98688 9.33437 9.32146 9.42667 9.70214C9.52302 10.0994 9.42579 10.4806 9.23961 10.8276Z" fill="#E77728"/>
</g>
<defs>
<clipPath id="clip0_63_11222">
<rect width="15" height="15" fill="white"/>
</clipPath>
</defs>
</svg>
