<svg width="52" height="53" viewBox="0 0 52 53" fill="none" xmlns="http://www.w3.org/2000/svg">
<path d="M42.7932 15.4599C40.8179 15.871 40.1187 18.2969 41.2181 20.8939C42.3175 23.4908 44.8142 25.262 46.7823 24.8612C48.7576 24.45 49.4568 22.0241 48.3574 19.4271C47.258 16.8302 44.7613 15.0591 42.7932 15.4599Z" fill="#FF6900"/>
<path d="M19.9149 41.4492C20.6049 39.8383 18.8852 37.2822 16.0646 35.7363C13.2439 34.1904 10.3986 34.2257 9.70863 35.8366C9.01866 37.4475 10.7384 40.0035 13.559 41.5494C16.3797 43.0953 19.225 43.0601 19.9149 41.4492Z" fill="#FF6900"/>
<path d="M34.9861 24.8127C37.6393 23.7578 37.2208 19.0963 34.0387 14.4082C30.8565 9.72004 26.1202 6.7665 23.4595 7.83219C20.8062 8.88709 21.2248 13.5486 24.4069 18.2367C27.589 22.9248 32.3253 25.8784 34.9861 24.8127Z" fill="#FF6900"/>
<path d="M24.2096 32.3184C25.9019 30.5769 23.8169 26.3119 19.5569 22.8063C15.2831 19.2912 10.4636 17.8631 8.76457 19.6144C7.07227 21.3559 9.15726 25.621 13.4173 29.1266C17.6911 32.6417 22.5106 34.0697 24.2096 32.3184Z" fill="#FF6900"/>
</svg>
