<svg width="31" height="27" viewBox="0 0 31 27" fill="none" xmlns="http://www.w3.org/2000/svg">
<path d="M30.8839 19.3245C30.4607 17.695 28.9926 16.5565 27.3117 16.5565C26.9727 16.5565 26.6337 16.6033 26.3064 16.6968L23.5571 7.22623C24.511 6.94101 25.2941 6.30278 25.7617 5.42142C26.2339 4.53305 26.3251 3.51609 26.0165 2.55758C25.5326 1.05202 24.0785 0 22.4794 0C22.1778 0 21.8762 0.0374052 21.584 0.112216C20.4128 0.413796 19.4776 1.26243 19.0545 2.37523C18.4186 1.89832 17.6494 1.63882 16.8452 1.63882C16.4595 1.63882 16.0761 1.6996 15.7067 1.81883C13.8832 2.4103 12.7914 4.39979 13.273 6.25603C13.6962 7.88549 15.1643 9.02402 16.8452 9.02402C17.1842 9.02402 17.5209 8.97726 17.8505 8.88375L20.0317 16.3975C19.1059 16.3204 18.1544 16.6547 17.4764 17.3888C17.3502 17.5244 17.2427 17.6693 17.1468 17.8189L8.99947 10.2864C9.14208 10.1789 9.27767 10.0597 9.40392 9.92408C10.5962 8.6336 10.4957 6.60904 9.16312 5.44714C7.9381 4.37641 6.02342 4.45123 4.88256 5.61079C4.04328 6.4641 3.80014 7.66808 4.12744 8.72711C4.19056 8.93284 4.00821 9.12922 3.7978 9.08246C2.71539 8.83933 1.53712 9.17598 0.751614 10.0807C-0.314436 11.3081 -0.237288 13.2228 0.924613 14.3613C2.18704 15.598 4.21394 15.5395 5.40623 14.2514C5.53247 14.1158 5.64001 13.9709 5.73586 13.8212L13.8832 21.3537C13.7406 21.4613 13.605 21.5805 13.4788 21.7161C12.2865 23.0066 12.387 25.0311 13.7195 26.193C14.9446 27.2638 16.8593 27.1889 18.0001 26.0294C18.484 25.5361 18.7693 24.9283 18.8628 24.2971C19.5571 25.0919 20.5834 25.5875 21.6799 25.5875C21.9814 25.5875 22.283 25.5501 22.5752 25.4753C23.7442 25.1737 24.6816 24.3251 25.1048 23.2123C25.7407 23.6892 26.5098 23.9487 27.314 23.9487C27.6998 23.9487 28.0832 23.8879 28.4525 23.7687C30.276 23.1772 31.3678 21.1877 30.8862 19.3315L30.8839 19.3245ZM27.3117 22.8079C26.6524 22.8079 26.0235 22.5554 25.5443 22.0948C25.3853 21.9429 25.1772 21.8587 24.9598 21.8587C24.5694 21.8587 24.2304 22.1229 24.1369 22.5039C23.9101 23.4204 23.2041 24.1357 22.2924 24.3695C22.0937 24.421 21.8856 24.4467 21.6799 24.4467C20.5694 24.4467 19.5594 23.7196 19.2228 22.6769C19.0101 22.013 19.0708 21.307 19.3981 20.6921C19.7254 20.0773 20.2748 19.6307 20.9434 19.4367C21.0767 19.397 21.2193 19.3712 21.3806 19.3525C21.5466 19.3338 21.6962 19.2427 21.7897 19.1047C21.8832 18.9645 21.909 18.7915 21.8622 18.6302L18.7693 7.97433C18.7225 7.81302 18.6079 7.6821 18.4537 7.61431C18.3812 7.58158 18.3017 7.56521 18.2245 7.56521C18.138 7.56521 18.0539 7.58392 17.9744 7.62366C17.8295 7.69379 17.6939 7.74756 17.5606 7.78731C17.3268 7.8551 17.086 7.89017 16.8452 7.89017C15.681 7.89017 14.664 7.10232 14.3718 5.97315C14.0375 4.68735 14.7949 3.31037 16.0574 2.89891C16.3145 2.81475 16.5811 2.77266 16.8476 2.77266C17.5068 2.77266 18.1357 3.02515 18.615 3.4857C18.7739 3.63766 18.982 3.72182 19.1994 3.72182C19.5898 3.72182 19.9288 3.45765 20.0223 3.07658C20.2491 2.16015 20.9551 1.44478 21.8669 1.21099C22.0656 1.15956 22.2737 1.13385 22.4794 1.13385C23.5899 1.13385 24.5998 1.86091 24.9365 2.90358C25.1492 3.56753 25.0884 4.27355 24.7611 4.8884C24.4338 5.50325 23.8844 5.94977 23.2158 6.14381C23.0826 6.18356 22.9399 6.20927 22.7786 6.22798C22.6126 6.24668 22.463 6.33785 22.3695 6.47578C22.276 6.61605 22.2503 6.78905 22.297 6.95036L25.39 17.6062C25.4367 17.7675 25.5513 17.8984 25.7056 17.9662C25.8576 18.034 26.0329 18.0317 26.1849 17.9569C26.3321 17.8844 26.4677 17.833 26.5986 17.7932C26.8324 17.7254 27.0732 17.6903 27.314 17.6903C28.4783 17.6903 29.4952 18.4782 29.7898 19.6074C30.1241 20.8932 29.3666 22.2702 28.1042 22.6793C27.847 22.7634 27.5805 22.8055 27.314 22.8055L27.3117 22.8079Z" fill="#00272B"/>
</svg>
