<svg width="33" height="33" viewBox="0 0 33 33" fill="none" xmlns="http://www.w3.org/2000/svg">
<g clip-path="url(#clip0_87_16800)">
<path d="M20.6442 3.96005C22.191 3.96005 23.4447 6.31302 23.4447 8.30636C23.4447 10.2997 22.191 11.9161 20.6442 11.9161C19.0975 11.9161 17.8438 10.3 17.8438 8.30636C17.8438 6.31272 19.0975 3.96005 20.6442 3.96005Z" fill="#00272B"/>
<path d="M12.6862 3.96005C14.2329 3.96005 15.4867 6.31302 15.4867 8.30636C15.4867 10.2997 14.2329 11.9161 12.6862 11.9161C11.1395 11.9161 9.88574 10.3 9.88574 8.30636C9.88574 6.31272 11.1395 3.96005 12.6862 3.96005Z" fill="#00272B"/>
<path d="M4.30025 14.4738C3.64348 12.8293 3.93106 10.4638 5.24222 9.94006C6.55337 9.41631 8.39156 10.9325 9.04834 12.577C9.70511 14.2215 9.17479 15.9793 7.86363 16.503C6.55248 17.0268 4.95703 16.1183 4.30025 14.4738Z" fill="#00272B"/>
<path d="M29.03 14.4738C28.3732 16.1183 26.7778 17.0268 25.4666 16.503C24.1555 15.9793 23.6249 14.2215 24.2819 12.577C24.9387 10.9325 26.7769 9.41631 28.0881 9.94006C29.3992 10.4638 29.6868 12.8293 29.03 14.4738Z" fill="#00272B"/>
<path d="M26.6848 23.5574C26.3844 22.2107 25.6684 20.9961 24.8765 19.8703C23.021 17.233 20.0489 14.5701 16.6655 14.5701C13.2961 14.5701 10.3106 17.2324 8.45449 19.8703C7.6623 20.9961 6.94633 22.2104 6.64619 23.5574C6.34576 24.9045 6.51018 26.4105 7.34452 27.5047C8.17887 28.5988 9.75937 29.1449 10.9952 28.5527C11.73 28.2006 12.3246 27.4906 13.1353 27.4221C13.8794 27.3594 14.537 27.8607 15.1579 28.2798C15.6067 28.5826 16.1474 28.8583 16.6655 28.8618C17.1836 28.8583 17.7244 28.5826 18.1731 28.2798C18.7937 27.8607 19.4513 27.3597 20.1957 27.4221C21.0064 27.4903 21.601 28.2006 22.3358 28.5527C23.5716 29.1449 25.1521 28.5988 25.9865 27.5047C26.8208 26.4105 26.9853 24.9045 26.6848 23.5574ZM19.6128 21.9351C19.231 22.6325 18.6287 23.2471 18.1199 23.7251C17.8463 23.9822 17.559 24.2226 17.2598 24.445C17.2592 24.4453 17.2586 24.4459 17.258 24.4462C16.9065 24.7051 16.4246 24.7051 16.073 24.4462C16.0724 24.4456 16.0718 24.4453 16.0712 24.445C15.772 24.2229 15.4847 23.9822 15.2112 23.7251C14.7024 23.2471 14.1 22.6325 13.7182 21.9351C13.4029 21.359 13.2381 20.7262 13.4014 20.0667C13.5577 19.4347 14.0566 18.8796 14.6683 18.8019C15.3756 18.7122 16.1989 19.2099 16.6655 19.7815C17.1319 19.2099 17.9554 18.7122 18.6627 18.8019C19.2744 18.8793 19.7733 19.4347 19.9296 20.0667C20.0929 20.7262 19.9282 21.359 19.6128 21.9351Z" fill="#00272B"/>
</g>
<defs>
<clipPath id="clip0_87_16800">
<rect width="25.41" height="24.9015" fill="white" transform="translate(3.96094 3.95999)"/>
</clipPath>
</defs>
</svg>
