<svg width="50" height="50" viewBox="0 0 50 50" fill="none" xmlns="http://www.w3.org/2000/svg">
<rect width="50" height="50" rx="2" fill="#00272B"/>
<path d="M19.7714 17.1875C20.493 17.1875 21.1591 17.243 21.7697 17.4095C22.3803 17.5205 22.8798 17.7426 23.3239 18.0201C23.768 18.2976 24.101 18.6862 24.323 19.1858C24.5451 19.6853 24.6561 20.2959 24.6561 20.962C24.6561 21.7391 24.4895 22.4052 24.101 22.9047C23.768 23.4043 23.2129 23.8484 22.5468 24.1814C23.4904 24.4589 24.212 24.9585 24.6561 25.6246C25.1001 26.2907 25.3777 27.1233 25.3777 28.0669C25.3777 28.844 25.2111 29.5101 24.9336 30.0652C24.6561 30.6202 24.212 31.1198 23.7124 31.4528C23.2129 31.7859 22.6023 32.0634 21.9362 32.2299C21.2701 32.3965 20.604 32.5075 19.938 32.5075H12.5V17.1875H19.7714ZM19.3274 23.4043C19.938 23.4043 20.4375 23.2378 20.8261 22.9602C21.2146 22.6827 21.3811 22.1831 21.3811 21.5726C21.3811 21.2395 21.3256 20.9065 21.2146 20.6845C21.1036 20.4624 20.9371 20.2959 20.7151 20.1294C20.493 20.0184 20.271 19.9074 19.9935 19.8518C19.7159 19.7963 19.4384 19.7963 19.1054 19.7963H15.8859V23.4043H19.3274ZM19.4939 29.9541C19.8269 29.9541 20.16 29.8986 20.4375 29.8431C20.7151 29.7876 20.9926 29.6766 21.2146 29.5101C21.4367 29.3436 21.6032 29.177 21.7697 28.8995C21.8807 28.622 21.9917 28.2889 21.9917 27.9004C21.9917 27.1233 21.7697 26.5682 21.3256 26.1797C20.8816 25.8466 20.271 25.6801 19.5494 25.6801H15.8859V29.9541H19.4939ZM30.2068 29.8986C30.6508 30.3427 31.3169 30.5647 32.205 30.5647C32.8156 30.5647 33.3707 30.3982 33.8148 30.1207C34.2588 29.7876 34.5363 29.4546 34.6474 29.1215H37.3672C36.9232 30.4537 36.2571 31.3973 35.369 32.0079C34.4808 32.563 33.4262 32.896 32.1495 32.896C31.2614 32.896 30.4843 32.7295 29.7627 32.452C29.0411 32.1744 28.4861 31.7859 27.9865 31.2308C27.4869 30.7312 27.0984 30.1207 26.8764 29.3991C26.5988 28.6775 26.4878 27.9004 26.4878 27.0123C26.4878 26.1797 26.5988 25.4026 26.8764 24.681C27.1539 23.9594 27.5424 23.3488 28.042 22.7937C28.5416 22.2942 29.1521 21.8501 29.8182 21.5726C30.5398 21.295 31.2614 21.1285 32.1495 21.1285C33.0932 21.1285 33.9258 21.295 34.6474 21.6836C35.369 22.0721 35.924 22.5162 36.3681 23.1823C36.8121 23.7929 37.1452 24.5144 37.3672 25.2915C37.4782 26.0686 37.5337 26.8457 37.4782 27.7339H29.4297C29.4297 28.622 29.7627 29.4546 30.2068 29.8986ZM33.7037 24.0704C33.3152 23.6818 32.7046 23.4598 31.983 23.4598C31.4834 23.4598 31.0949 23.5708 30.7619 23.7373C30.4288 23.9039 30.2068 24.1259 29.9848 24.3479C29.7627 24.57 29.6517 24.8475 29.5962 25.125C29.5407 25.4026 29.4852 25.6246 29.4852 25.8466H34.4808C34.3698 25.014 34.0923 24.4589 33.7037 24.0704ZM28.8191 18.2421H35.0359V19.7408H28.8191V18.2421Z" fill="white"/>
</svg>
