<svg width="50" height="50" viewBox="0 0 50 50" fill="none" xmlns="http://www.w3.org/2000/svg">
<path d="M50 4C50 2.11438 50 1.17157 49.4142 0.585786C48.8284 0 47.8856 0 46 0H4C2.11438 0 1.17157 0 0.585786 0.585786C0 1.17157 0 2.11438 0 4V46C0 47.8856 0 48.8284 0.585786 49.4142C1.17157 50 2.11438 50 4 50H46C47.8856 50 48.8284 50 49.4142 49.4142C50 48.8284 50 47.8856 50 46V4Z" fill="#00272B"/>
<path d="M25 12.5C18.1 12.5 12.5 18.1 12.5 25C12.5 31.9 18.1 37.5 25 37.5C31.875 37.5 37.5 31.9 37.5 25C37.5 18.1 31.875 12.5 25 12.5ZM33.25 18.25C34.75 20.075 35.625 22.375 35.675 24.9C35.325 24.825 31.8 24.125 28.25 24.55C28.175 24.375 28.1 24.175 28.025 24C27.8 23.475 27.575 22.95 27.325 22.45C31.225 20.875 33.025 18.55 33.25 18.25ZM25 14.35C27.7 14.35 30.2 15.375 32.075 17.025C31.875 17.3 30.275 19.45 26.475 20.875C24.725 17.65 22.775 15.025 22.5 14.625C23.3 14.45 24.125 14.35 25 14.35ZM20.45 15.35C20.725 15.725 22.625 18.375 24.4 21.525C19.4 22.85 15 22.825 14.525 22.825C15.25 19.5 17.475 16.75 20.45 15.35ZM14.325 25.025C14.325 24.925 14.325 24.8 14.325 24.7C14.775 24.725 19.975 24.775 25.3 23.175C25.6 23.775 25.9 24.375 26.175 25C26.05 25.05 25.9 25.075 25.75 25.125C20.25 26.9 17.325 31.75 17.075 32.15C15.35 30.25 14.325 27.75 14.325 25.025ZM25 35.675C22.525 35.675 20.25 34.825 18.45 33.425C18.65 33.025 20.8 28.85 26.825 26.75C26.85 26.725 26.875 26.725 26.9 26.725C28.4 30.625 29.025 33.875 29.175 34.825C27.9 35.375 26.475 35.675 25 35.675ZM30.95 33.85C30.85 33.2 30.275 30.075 28.875 26.25C32.225 25.725 35.15 26.6 35.525 26.7C35.05 29.675 33.35 32.25 30.95 33.85Z" fill="white"/>
</svg>
