<svg width="50" height="50" viewBox="0 0 50 50" fill="none" xmlns="http://www.w3.org/2000/svg">
<path d="M50 4C50 2.11438 50 1.17157 49.4142 0.585786C48.8284 0 47.8856 0 46 0H4C2.11438 0 1.17157 0 0.585786 0.585786C0 1.17157 0 2.11438 0 4V46C0 47.8856 0 48.8284 0.585786 49.4142C1.17157 50 2.11438 50 4 50H46C47.8856 50 48.8284 50 49.4142 49.4142C50 48.8284 50 47.8856 50 46V4Z" fill="#00272B"/>
<path d="M18.125 37.5H12.8125V20.7812H18.125V37.5ZM15.4688 18.4375C13.75 18.4375 12.5 17.1875 12.5 15.4687C12.5 13.75 13.9063 12.5 15.4688 12.5C17.1875 12.5 18.4375 13.75 18.4375 15.4687C18.4375 17.1875 17.1875 18.4375 15.4688 18.4375ZM37.5 37.5H32.1875V28.4375C32.1875 25.7813 31.0937 25 29.5312 25C27.9687 25 26.4062 26.25 26.4062 28.5937V37.5H21.0938V20.7812H26.0937V23.125C26.5625 22.0312 28.4375 20.3125 31.0937 20.3125C34.0625 20.3125 37.1875 22.0312 37.1875 27.1875V37.5H37.5Z" fill="white"/>
</svg>
