<svg width="50" height="50" viewBox="0 0 50 50" fill="none" xmlns="http://www.w3.org/2000/svg">
<path d="M50 4C50 2.11438 50 1.17157 49.4142 0.585786C48.8284 0 47.8856 0 46 0H4C2.11438 0 1.17157 0 0.585786 0.585786C0 1.17157 0 2.11438 0 4V46C0 47.8856 0 48.8284 0.585786 49.4142C1.17157 50 2.11438 50 4 50H46C47.8856 50 48.8284 50 49.4142 49.4142C50 48.8284 50 47.8856 50 46V4Z" fill="#00272B"/>
<path d="M37.5 17.1875C36.5625 17.6562 35.625 17.8125 34.5312 17.9688C35.625 17.3438 36.4062 16.4062 36.7188 15.1562C35.7812 15.7812 34.6875 16.0938 33.4375 16.4062C32.5 15.4687 31.0938 14.8438 29.6875 14.8438C26.4062 14.8438 23.9062 17.9688 24.6875 21.0938C20.4688 20.9375 16.7188 18.9063 14.0625 15.7813C12.6563 18.125 13.4375 21.0938 15.625 22.6562C14.8438 22.6562 14.0625 22.3438 13.2812 22.0313C13.2812 24.375 15 26.5625 17.3438 27.1875C16.5625 27.3437 15.7813 27.5 15 27.3438C15.625 29.375 17.5 30.9375 19.8437 30.9375C17.9687 32.3437 15.1562 33.125 12.5 32.8125C14.8438 34.2188 17.5 35.1562 20.3125 35.1562C29.8438 35.1562 35.1562 27.1875 34.8437 19.8437C35.9375 19.2187 36.875 18.2812 37.5 17.1875Z" fill="white"/>
</svg>
