<svg width="61" height="50" viewBox="0 0 61 50" fill="none" xmlns="http://www.w3.org/2000/svg">
<path d="M60.8841 17.3493C60.8841 12.7535 57.4227 8.4614 51.1431 5.26355C45.4263 2.356 37.9944 0.685608 30.7456 0.685608C16.257 0.685608 0.115875 7.52795 0.115875 17.3493C0.115875 18.5731 0.307926 19.77 0.678627 20.9223L3.22887 35.6387C4.13553 40.1541 7.13687 43.8477 11.2592 45.5181C15.5335 47.251 22.3847 49.3145 30.7412 49.3145C39.0976 49.3145 45.7032 47.2778 49.8345 45.5717C53.8899 43.8924 56.851 40.2211 57.7532 35.7146L60.3035 20.9938C60.6831 19.8236 60.8796 18.6043 60.8796 17.3538L60.8841 17.3493ZM30.7456 47.1439C22.7376 47.1439 16.1721 45.1653 12.0766 43.5083C8.6286 42.1148 6.11856 39.0108 5.36375 35.2412L3.77822 26.0764C5.76125 28.2202 8.49462 30.0514 11.8533 31.4091L15.0065 37.6307L15.261 37.7915C15.4843 37.9299 20.8082 41.1948 30.2588 41.1948C39.7094 41.1948 44.6045 37.9076 44.8099 37.7647L45.0377 37.6083L47.9453 31.8692C51.8622 30.4757 55.0109 28.4927 57.2217 26.1166L55.6273 35.3127C54.8725 39.0777 52.3981 42.164 49.0127 43.5664C45.06 45.201 38.6867 47.1483 30.7456 47.1483V47.1439ZM2.28649 17.3493C2.28649 9.05095 17.3111 2.85175 30.7456 2.85175C44.1802 2.85175 58.7179 9.05095 58.7179 17.3493C58.7179 22.7133 54.2695 27.4252 46.8242 29.9621L46.4044 30.105L43.3584 36.1166C42.3713 36.7062 37.9855 39.0286 30.2543 39.0286C22.5232 39.0286 17.7577 36.6928 16.6545 36.0943L13.5996 30.0693L13.3539 29.6718L13.019 29.5422C6.29274 26.9295 2.28202 22.3739 2.28202 17.3493H2.28649Z" fill="white"/>
<path d="M40.8394 21.9808L39.9685 22.4096L39.4459 21.5923C39.3298 21.4091 36.4401 17.0724 30.4955 17.0724C24.5509 17.0724 21.5763 21.5476 21.5495 21.5923L21.027 22.4096L20.1561 21.9808C13.9167 18.8946 9.96847 22.3158 9.14221 23.1465C10.7858 24.6293 13.0368 25.8844 15.7076 26.8044L19.0842 33.7227C19.0842 33.7227 25.4486 35.7102 30.2588 35.7102C35.069 35.7102 40.9466 33.7227 40.9466 33.7227L44.14 27.1751C47.32 26.2372 49.9863 24.8393 51.8622 23.1465C51.0359 22.3203 47.0833 18.8946 40.8439 21.9808H40.8394ZM28.4589 27.0501C26.8108 27.0501 25.6808 28.5865 25.6719 28.6043L24.7876 29.8638L23.8988 28.6043C23.8988 28.6043 22.7599 27.0501 21.1118 27.0501V24.8839C22.7465 24.8839 24.006 25.7012 24.7831 26.3935C25.5603 25.6968 26.8197 24.8839 28.4544 24.8839V27.0501H28.4589ZM39.8791 27.0501C38.2311 27.0501 37.1056 28.5865 37.0922 28.6043L36.2034 29.8638L35.3146 28.6043C35.3146 28.6043 34.1757 27.0501 32.5277 27.0501V24.8839C34.1623 24.8839 35.4218 25.7012 36.1989 26.3935C36.9761 25.6968 38.2356 24.8839 39.8702 24.8839V27.0501H39.8791Z" fill="white"/>
<path d="M7.68175 21.552C8.91891 20.3819 13.5102 16.7508 20.299 19.6583C21.5585 18.1398 24.9037 14.9017 30.5 14.9017C36.0962 14.9017 39.437 18.1353 40.701 19.6583C47.4897 16.7508 52.0766 20.3819 53.3182 21.552C54.274 20.2568 54.8055 18.8365 54.8055 17.3537C54.8055 11.2037 41.8801 6.2193 30.7456 6.2193C19.6112 6.2193 6.19894 11.2037 6.19894 17.3537C6.19894 18.841 6.72596 20.2568 7.68621 21.5565L7.68175 21.552Z" fill="white"/>
</svg>
