<svg width="59" height="58" viewBox="0 0 59 58" fill="none" xmlns="http://www.w3.org/2000/svg">
<path d="M16.7264 24.6365C17.7805 24.6365 18.6335 23.7834 18.6335 22.7294V16.1952C18.6335 15.1411 17.7805 14.2881 16.7264 14.2881C15.6724 14.2881 14.8193 15.1411 14.8193 16.1952V22.7294C14.8193 23.7834 15.6724 24.6365 16.7264 24.6365Z" fill="white"/>
<path d="M23.5331 22.7294C23.5331 23.7834 24.3861 24.6365 25.4402 24.6365C26.4942 24.6365 27.3473 23.7834 27.3473 22.7294V16.1952C27.3473 15.1411 26.4942 14.2881 25.4402 14.2881C24.3861 14.2881 23.5331 15.1411 23.5331 16.1952V22.7294Z" fill="white"/>
<path d="M32.2423 16.1952V22.7294C32.2423 23.7834 33.0954 24.6365 34.1494 24.6365C35.2035 24.6365 36.0565 23.7834 36.0565 22.7294V16.1952C36.0565 15.1411 35.2035 14.2881 34.1494 14.2881C33.0954 14.2881 32.2423 15.1411 32.2423 16.1952Z" fill="white"/>
<path d="M42.8631 24.6365C43.9172 24.6365 44.7702 23.7834 44.7702 22.7294V16.1952C44.7702 15.1411 43.9172 14.2881 42.8631 14.2881C41.8091 14.2881 40.956 15.1411 40.956 16.1952V22.7294C40.956 23.7834 41.8091 24.6365 42.8631 24.6365Z" fill="white"/>
<path d="M16.7264 40.9026C15.6724 40.9026 14.8193 41.7556 14.8193 42.8097V49.3439C14.8193 50.3979 15.6724 51.251 16.7264 51.251C17.7805 51.251 18.6335 50.3979 18.6335 49.3439V42.8097C18.6335 41.7556 17.7805 40.9026 16.7264 40.9026Z" fill="white"/>
<path d="M25.4357 40.9026C24.3817 40.9026 23.5286 41.7556 23.5286 42.8097V49.3439C23.5286 50.3979 24.3817 51.251 25.4357 51.251C26.4897 51.251 27.3428 50.3979 27.3428 49.3439V42.8097C27.3428 41.7556 26.4897 40.9026 25.4357 40.9026Z" fill="white"/>
<path d="M34.1494 40.9026C33.0954 40.9026 32.2423 41.7556 32.2423 42.8097V49.3439C32.2423 50.3979 33.0954 51.251 34.1494 51.251C35.2035 51.251 36.0565 50.3979 36.0565 49.3439V42.8097C36.0565 41.7556 35.2035 40.9026 34.1494 40.9026Z" fill="white"/>
<path d="M42.8631 40.9026C41.8091 40.9026 40.956 41.7556 40.956 42.8097V49.3439C40.956 50.3979 41.8091 51.251 42.8631 51.251C43.9172 51.251 44.7702 50.3979 44.7702 49.3439V42.8097C44.7702 41.7556 43.9172 40.9026 42.8631 40.9026Z" fill="white"/>
<path d="M58.8435 30.8669C58.8435 29.7682 57.9681 28.8749 56.8783 28.8436L50.5674 12.4926C49.567 9.90216 47.0302 8.16031 44.2521 8.16031H39.5179V6.7177C39.5179 3.52878 36.9364 0.947266 33.7474 0.947266H25.8511C22.6621 0.947266 20.0806 3.52878 20.0806 6.7177V8.16031H15.3464C12.5683 8.16031 10.0315 9.90216 9.03104 12.4926L2.72019 28.8392H2.1887C1.06767 28.8392 0.161011 29.7458 0.161011 30.8669C0.161011 31.9879 1.06767 32.8946 2.1887 32.8946C1.06767 32.8946 0.161011 33.8012 0.161011 34.9223C0.161011 36.0433 1.06767 36.9499 2.1887 36.9499H2.77379L5.57414 50.3979C6.39147 54.3148 9.49554 57.0527 13.1222 57.0527H46.4763C50.1074 57.0527 53.2115 54.3148 54.0243 50.3979L56.8247 36.9499C57.9413 36.9499 58.8479 36.0433 58.8479 34.9223C58.8479 33.8012 57.9413 32.8946 56.8202 32.8946C57.9413 32.8946 58.8479 31.9879 58.8479 30.8669H58.8435ZM46.4719 54.8821H13.1177C10.5272 54.8821 8.29411 52.8544 7.69116 49.9513L5.20791 38.0263H54.3817L51.8984 49.9513C51.2955 52.8544 49.0623 54.8821 46.4719 54.8821ZM15.3419 10.3265H44.2477C46.1369 10.3265 47.8609 11.51 48.5398 13.2697L54.1315 27.7539H5.45355L11.0453 13.2697C11.7242 11.51 13.4527 10.3265 15.3374 10.3265H15.3419ZM24.2253 7.30725C24.2253 5.88697 25.3776 4.73467 26.7979 4.73467H32.7961C34.2164 4.73467 35.3687 5.88697 35.3687 7.30725V8.16031H24.2253V7.30725Z" fill="white"/>
</svg>
