<svg width="77" height="64" viewBox="0 0 77 64" fill="none" xmlns="http://www.w3.org/2000/svg">
<path d="M75.521 8.33765C74.8823 7.59178 73.9712 7.16749 73.0199 7.16749C71.8184 7.16749 70.2999 7.90889 69.63 9.99018C69.5585 10.2135 69.4826 10.4636 69.3977 10.736C68.1784 14.7646 65.6371 23.1434 53.797 23.1434H51.9435C51.8631 23.1434 51.7827 23.1344 51.7068 23.1344H40.0051C32.2561 23.1344 31.8095 14.6887 31.7961 14.3314L31.6041 12.7503C31.6041 12.46 31.5951 12.2144 31.5773 11.9777C31.1842 6.28316 26.6063 1.58017 20.9341 1.03528C20.5456 0.999554 20.157 0.981689 19.7729 0.981689C15.3423 0.981689 11.3227 3.42474 9.27266 7.35954C9.10294 7.64538 8.94216 7.94909 8.78137 8.28852C7.95064 10.0259 6.50804 10.9102 5.10562 11.3524C4.85998 11.4283 4.6054 11.4953 4.34636 11.5534C4.08731 11.6114 3.8238 11.6561 3.55582 11.6874C2.87695 11.7722 2.25614 12.0536 1.75145 12.4958C1.74698 12.5002 1.73805 12.5047 1.73358 12.5092C1.56386 12.6565 1.40754 12.8263 1.26909 13.0094C0.710804 13.7419 0.474092 14.644 0.603614 15.5552C0.630412 15.7472 0.661675 15.9393 0.697405 16.1313C0.742068 16.368 0.791197 16.5958 0.844793 16.8191L1.02791 17.5873H1.06364C2.6849 22.5181 7.24944 23.0094 12.5732 23.063C14.3419 23.063 15.4361 23.8446 15.4361 27.7258V33.6615C15.4361 33.8848 15.4451 34.1036 15.454 34.3225C15.4451 34.9567 15.4361 35.6668 15.4361 36.4663C15.4361 43.2014 16.8519 48.5118 18.0355 51.7767C18.6563 53.4828 19.0226 55.314 19.1208 57.1273C18.0489 57.3551 17.4147 57.9 17.0574 58.3689C15.9006 59.8875 16.4276 61.9911 16.4946 62.2233L16.7135 63.0183H25.7354V48.8155C26.2088 49.0031 26.6867 49.1684 27.1735 49.3113C27.4326 50.1956 27.7139 51.0621 28.0176 51.8883C28.6161 53.5185 28.969 55.3095 29.0627 57.1273C27.9908 57.3551 27.3566 57.9 26.9949 58.3689C25.8381 59.8875 26.3651 61.9911 26.4321 62.2233L26.651 63.0183H35.6728V49.4766C36.718 49.2175 37.7318 48.8602 38.692 48.4091L40.5723 47.5248C41.8497 49.356 44.0069 54.1483 44.4446 57.1318C43.404 57.3685 42.7876 57.9 42.4348 58.3644C41.278 59.883 41.805 61.9866 41.872 62.2189L42.0909 63.0138H51.1128V51.1425C52.9484 52.6074 54.1454 54.7736 54.4044 57.1228C53.3504 57.3551 52.7251 57.891 52.3678 58.36C51.211 59.8785 51.7381 61.9821 51.805 62.2144L52.0239 63.0094H61.0413V61.9285C61.0413 61.674 61.1083 36.4038 61.0368 32.4913C61.0502 32 60.9029 30.87 60.7331 30.1018C72.6983 27.3819 75.6505 16.3502 76.3696 11.6159C76.5616 10.3519 76.2624 9.18178 75.5255 8.32425L75.521 8.33765ZM54.0918 59.6775C54.3464 59.347 54.8332 59.1818 55.5389 59.1818H56.6242V58.0965C56.6242 54.2421 54.5786 50.6199 51.2914 48.6414C51.0681 48.5074 50.8403 48.3689 50.6126 48.2215L48.9422 47.1496V60.8522H43.864C43.8595 60.4502 43.9221 59.9946 44.1588 59.682C44.4134 59.3515 44.9002 59.1818 45.6103 59.1818H46.6956V58.0965C46.6956 54.3091 43.1851 46.9174 41.6353 45.4122L41.1485 44.9388C42.9886 38.7218 52.6358 30.5351 58.3258 29.6865C58.4062 29.883 58.4821 30.0795 58.5491 30.285C58.7054 30.7673 58.8841 32.1563 58.8752 32.4243V32.469V32.5136C58.9422 35.8455 58.8975 55.9437 58.8841 60.8522H53.8015C53.797 60.4457 53.8595 59.9857 54.0962 59.6775H54.0918ZM28.7233 59.6775C28.9779 59.347 29.4647 59.1818 30.1704 59.1818H31.2557V58.0429C31.2557 55.6668 30.8403 53.2774 30.0587 51.138C29.7104 50.1822 29.3888 49.1728 29.1029 48.1367L28.9332 47.5248L28.3169 47.3729C27.2271 47.1005 26.1641 46.6941 25.1637 46.167L23.5737 45.3274V60.8522H18.4955C18.4911 60.4502 18.5536 59.9946 18.7903 59.682C19.0449 59.3515 19.5317 59.1818 20.2418 59.1818H21.3272V58.0473C21.3272 55.6892 20.8984 53.264 20.09 51.0353C18.9645 47.9312 17.6201 42.8843 17.6201 36.4618C17.6201 35.6624 17.6246 34.9567 17.638 34.3225V34.2912V34.2599C17.6291 34.059 17.6246 33.858 17.6246 33.657V27.7213C17.6246 26.0331 17.6246 20.8924 12.6045 20.8879C7.32537 20.8343 4.51607 20.2805 3.31464 17.3863C3.98012 17.1898 4.56074 16.8459 5.04756 16.3502C6.03461 15.3497 6.36512 14.0098 6.47231 13.1657C8.40174 12.3841 9.88454 11.0353 10.7465 9.22644C10.885 8.93613 11.019 8.68156 11.1619 8.44484L11.1932 8.38678C12.8636 5.15766 16.1552 3.1523 19.7818 3.1523C20.0989 3.1523 20.4205 3.1657 20.7376 3.19696C25.3691 3.63913 29.1029 7.48013 29.4245 12.1295C29.4379 12.3305 29.4468 12.5494 29.4468 12.8173L29.6389 14.4609C29.7684 17.5114 31.3406 22.7012 36.0703 24.5904C32.6045 25.649 30.0855 28.8736 30.0855 32.6833V38.1322C30.0855 42.9156 32.3589 46.1804 33.6764 47.6766L33.5112 47.7079V60.8522H28.433C28.4285 60.4457 28.4911 59.9857 28.7278 59.6775H28.7233ZM2.99754 14.3225C3.20299 14.0545 3.50223 13.8803 3.8372 13.8356C3.92206 13.8267 4.01138 13.8133 4.09624 13.7999C3.96672 14.1751 3.77021 14.5458 3.48883 14.8316C3.28338 15.0371 3.0422 15.1889 2.75636 15.2827C2.75636 15.2693 2.75636 15.2604 2.75189 15.247C2.70276 14.9165 2.79209 14.5904 2.99307 14.3225H2.99754Z" fill="white"/>
<path d="M26.2981 9.05675C25.9899 8.11883 25.1146 7.48462 24.1275 7.48462C23.1405 7.48462 22.2963 8.0965 21.9748 9.00762L21.0949 11.5087C19.63 15.6624 18.8841 18.5923 18.8841 22.996C18.8841 25.6043 20.9966 27.7169 23.605 27.7169C26.2133 27.7169 28.3258 25.6043 28.3258 22.996V20.0081C28.3258 15.8902 27.6737 13.2417 26.3874 9.33366L26.2981 9.06122V9.05675Z" fill="white"/>
</svg>
