<svg width="85" height="86" viewBox="0 0 85 86" fill="none" xmlns="http://www.w3.org/2000/svg">
<circle cx="42.5203" cy="43.3011" r="42.4354" fill="white"/>
<path d="M40.0079 30.864C40.5916 30.864 41.0919 31.0725 41.5089 31.4894C41.8424 31.9064 42.0092 32.4067 42.0092 32.9904C42.0092 33.6575 41.8841 34.3246 41.6339 34.9917L35.0046 52.1278C34.5877 52.9617 34.1707 53.6288 33.7538 54.1291C33.2535 54.7129 32.4613 55.0047 31.3773 55.0047L27.2496 55.0047C26.5825 55.0047 26.0821 54.7546 25.7486 54.2542C25.3317 53.7539 25.2066 53.0868 25.3734 52.2529L28.1251 34.4914C28.2085 33.4907 28.5421 32.6152 29.1258 31.8647C29.7095 31.1976 30.5851 30.864 31.7525 30.864L40.0079 30.864ZM60.0209 30.864C60.6046 30.864 61.1049 31.0725 61.5219 31.4894C61.8554 31.9064 62.0222 32.4067 62.0222 32.9904C62.0222 33.6575 61.8971 34.3246 61.647 34.9917L55.0176 52.1278C54.6007 52.9617 54.1421 53.6288 53.6417 54.1291C53.1414 54.7129 52.3909 55.0047 51.3903 55.0047H47.2626C46.5955 55.0047 46.0952 54.7546 45.7616 54.2542C45.3447 53.7539 45.2196 53.0868 45.3864 52.2529L48.1382 34.4914C48.2216 33.4907 48.5551 32.6152 49.1388 31.8647C49.7225 31.1976 50.5564 30.864 51.6404 30.864L60.0209 30.864Z" fill="#00376B"/>
</svg>
