<svg width="210" height="40" viewBox="0 0 210 40" fill="none" xmlns="http://www.w3.org/2000/svg">
<path d="M18.697 3.71861C19.0458 2.64528 20.5642 2.64528 20.913 3.71861L23.9899 13.1885C24.1459 13.6685 24.5932 13.9935 25.0979 13.9935H35.0552C36.1837 13.9935 36.653 15.4377 35.7399 16.101L27.6844 21.9537C27.276 22.2504 27.1052 22.7762 27.2611 23.2563L30.3381 32.7262C30.6869 33.7995 29.4584 34.692 28.5454 34.0287L20.4898 28.1759C20.0815 27.8793 19.5285 27.8793 19.1202 28.1759L11.0646 34.0287C10.1516 34.692 8.92315 33.7995 9.27189 32.7262L12.3489 23.2563C12.5048 22.7762 12.334 22.2504 11.9256 21.9537L3.87006 16.101C2.95703 15.4377 3.42626 13.9935 4.55483 13.9935H14.5121C15.0168 13.9935 15.4641 13.6685 15.6201 13.1885L18.697 3.71861Z" fill="#FDAF3B"/>
<path d="M61.8021 3.71861C62.1509 2.64528 63.6693 2.64528 64.0181 3.71861L67.095 13.1885C67.251 13.6685 67.6983 13.9935 68.203 13.9935H78.1603C79.2888 13.9935 79.7581 15.4377 78.845 16.101L70.7895 21.9537C70.3811 22.2504 70.2103 22.7762 70.3662 23.2563L73.4432 32.7262C73.792 33.7995 72.5635 34.692 71.6505 34.0287L63.5949 28.1759C63.1866 27.8793 62.6337 27.8793 62.2253 28.1759L54.1698 34.0287C53.2567 34.692 52.0283 33.7995 52.377 32.7262L55.454 23.2563C55.6099 22.7762 55.4391 22.2504 55.0307 21.9537L46.9752 16.101C46.0621 15.4377 46.5314 13.9935 47.6599 13.9935H57.6172C58.1219 13.9935 58.5692 13.6685 58.7252 13.1885L61.8021 3.71861Z" fill="#FDAF3B"/>
<path d="M103.742 3.71861C104.091 2.64528 105.609 2.64528 105.958 3.71861L109.035 13.1885C109.191 13.6685 109.638 13.9935 110.143 13.9935H120.1C121.229 13.9935 121.698 15.4377 120.785 16.101L112.73 21.9537C112.321 22.2504 112.15 22.7762 112.306 23.2563L115.383 32.7262C115.732 33.7995 114.504 34.692 113.591 34.0287L105.535 28.1759C105.127 27.8793 104.574 27.8793 104.165 28.1759L96.1098 34.0287C95.1968 34.692 93.9683 33.7995 94.3171 32.7262L97.394 23.2563C97.55 22.7762 97.3791 22.2504 96.9708 21.9537L88.9152 16.101C88.0022 15.4377 88.4714 13.9935 89.6 13.9935H99.5572C100.062 13.9935 100.509 13.6685 100.665 13.1885L103.742 3.71861Z" fill="#FDAF3B"/>
<path d="M145.682 3.71861C146.031 2.64528 147.549 2.64528 147.898 3.71861L150.975 13.1885C151.131 13.6685 151.578 13.9935 152.083 13.9935H162.04C163.169 13.9935 163.638 15.4377 162.725 16.101L154.669 21.9537C154.261 22.2504 154.09 22.7762 154.246 23.2563L157.323 32.7262C157.672 33.7995 156.443 34.692 155.53 34.0287L147.475 28.1759C147.067 27.8793 146.514 27.8793 146.105 28.1759L138.05 34.0287C137.137 34.692 135.908 33.7995 136.257 32.7262L139.334 23.2563C139.49 22.7762 139.319 22.2504 138.911 21.9537L130.855 16.101C129.942 15.4377 130.411 13.9935 131.54 13.9935H141.497C142.002 13.9935 142.449 13.6685 142.605 13.1885L145.682 3.71861Z" fill="#FDAF3B"/>
<path d="M188.787 3.71861C189.136 2.64528 190.654 2.64528 191.003 3.71861L194.08 13.1885C194.236 13.6685 194.683 13.9935 195.188 13.9935H205.145C206.274 13.9935 206.743 15.4377 205.83 16.101L197.774 21.9537C197.366 22.2504 197.195 22.7762 197.351 23.2563L200.428 32.7262C200.777 33.7995 199.548 34.692 198.635 34.0287L190.58 28.1759C190.172 27.8793 189.619 27.8793 189.21 28.1759L181.155 34.0287C180.242 34.692 179.013 33.7995 179.362 32.7262L182.439 23.2563C182.595 22.7762 182.424 22.2504 182.016 21.9537L173.96 16.101C173.047 15.4377 173.516 13.9935 174.645 13.9935H184.602C185.107 13.9935 185.554 13.6685 185.71 13.1885L188.787 3.71861Z" fill="#FDAF3B"/>
</svg>
