<svg width="28" height="28" viewBox="0 0 28 28" fill="none" xmlns="http://www.w3.org/2000/svg">
<path d="M13.7528 0.24707C6.15704 0.24707 0 6.40527 0 13.9999C0 21.5957 6.15704 27.7528 13.7528 27.7528C21.3475 27.7528 27.5057 21.5946 27.5057 13.9999C27.5057 6.40527 21.3475 0.24707 13.7528 0.24707ZM10.3837 17.693C10.3837 18.4362 9.78136 19.0374 9.03925 19.0374C8.29598 19.0374 7.69484 18.4362 7.69484 17.693V11.9612C7.69484 11.2179 8.29598 10.6156 9.03925 10.6156C9.78136 10.6156 10.3837 11.2179 10.3837 11.9612V17.693ZM19.8808 17.5963C19.8808 18.6471 19.2668 19.0234 18.216 19.0234H13.3812C12.3304 19.0234 11.4788 18.1718 11.4788 17.121V12.3654C11.4788 12.3654 11.3844 11.5744 12.2605 10.8311C12.7556 10.4105 13.4907 9.60786 14.0045 8.63392C15.025 6.69885 15.6355 6.13499 16.1003 6.28644C17.8222 6.84448 16.9613 9.397 16.4056 10.463H17.9783C19.028 10.463 19.8808 11.3146 19.8808 12.3654V17.5963Z" fill="white"/>
</svg>
