<svg width="61" height="61" viewBox="0 0 61 61" fill="none" xmlns="http://www.w3.org/2000/svg">
<path d="M22.125 19.475C21.3862 18.7866 20.235 18.8069 19.5209 19.5209C18.8069 20.235 18.7866 21.3862 19.475 22.125L28.925 31.575V43.3C28.925 44.3355 29.7645 45.175 30.8 45.175C31.8355 45.175 32.675 44.3355 32.675 43.3V30.8C32.6746 30.3029 32.4767 29.8263 32.125 29.475L22.125 19.475Z" fill="white"/>
<path fill-rule="evenodd" clip-rule="evenodd" d="M25.5 5.5H36.1C41.4043 5.5 46.4914 7.60714 50.2421 11.3579C53.9929 15.1086 56.1 20.1957 56.1 25.5V36.1C56.1 47.1457 47.1457 56.1 36.1 56.1H25.5C14.4543 56.1 5.5 47.1457 5.5 36.1V25.5C5.5 14.4543 14.4543 5.5 25.5 5.5ZM36.1 52.35C45.0689 52.3362 52.3362 45.0689 52.35 36.1V25.5C52.3362 16.5311 45.0689 9.26377 36.1 9.25H25.5C16.5311 9.26377 9.26377 16.5311 9.25 25.5V36.1C9.26377 45.0689 16.5311 52.3362 25.5 52.35H36.1Z" fill="white"/>
</svg>
