<svg width="61" height="61" viewBox="0 0 61 61" fill="none" xmlns="http://www.w3.org/2000/svg">
<path fill-rule="evenodd" clip-rule="evenodd" d="M45.499 10.5001H15.499C9.97618 10.5001 5.49902 14.9772 5.49902 20.5001V43.0001C5.49902 48.5229 9.97618 53.0001 15.499 53.0001H45.499C51.0219 53.0001 55.499 48.5229 55.499 43.0001V20.5001C55.499 14.9772 51.0219 10.5001 45.499 10.5001ZM15.499 14.4751H45.499C48.1634 14.4801 50.5052 16.2416 51.249 18.8001L32.399 32.7751C31.8824 33.2802 31.182 33.5524 30.4598 33.5288C29.7377 33.5052 29.0566 33.1878 28.574 32.6501L9.79903 18.8251C10.5284 16.2744 12.8463 14.5055 15.499 14.4751ZM9.47402 43.0001C9.47402 46.3276 12.1715 49.0251 15.499 49.0251H45.499C48.8168 49.0113 51.4991 46.3178 51.499 43.0001V22.9251L34.499 35.4251C33.4125 36.4365 31.9835 36.9993 30.499 37.0001C28.9559 36.9755 27.4769 36.3785 26.349 35.3251L9.47402 22.8251V43.0001Z" fill="white"/>
</svg>
