<svg width="91" height="91" viewBox="0 0 91 91" fill="none" xmlns="http://www.w3.org/2000/svg">
<rect x="0.5" y="0.5" width="90" height="90" rx="10" fill="#FF6900"/>
<path fill-rule="evenodd" clip-rule="evenodd" d="M60.499 25.5H30.499C24.9762 25.5 20.499 29.9772 20.499 35.5V58C20.499 63.5228 24.9762 68 30.499 68H60.499C66.0219 68 70.499 63.5228 70.499 58V35.5C70.499 29.9772 66.0219 25.5 60.499 25.5ZM30.499 29.475H60.499C63.1634 29.4801 65.5052 31.2416 66.249 33.8L47.399 47.775C46.8824 48.2801 46.182 48.5524 45.4598 48.5288C44.7377 48.5052 44.0566 48.1878 43.574 47.65L24.799 33.825C25.5284 31.2743 27.8463 29.5054 30.499 29.475ZM24.474 58C24.474 61.3275 27.1715 64.025 30.499 64.025H60.499C63.8168 64.0112 66.4991 61.3178 66.499 58V37.925L49.499 50.425C48.4125 51.4365 46.9835 51.9992 45.499 52C43.9559 51.9754 42.4769 51.3785 41.349 50.325L24.474 37.825V58Z" fill="white"/>
</svg>
