<svg width="61" height="61" viewBox="0 0 61 61" fill="none" xmlns="http://www.w3.org/2000/svg">
<path d="M42.55 39.2125C41.6378 38.7541 40.5266 39.1097 40.05 40.0125C39.6096 40.9322 39.9737 42.0355 40.875 42.5125C43.075 43.6375 44.325 45.0125 44.325 46.3375C44.325 49.1625 38.425 52.3125 30.525 52.3125C22.625 52.3125 16.7 49.1875 16.7 46.4375C16.7 45.1375 17.95 43.7375 20.15 42.6125C20.8098 42.3479 21.2632 41.7331 21.321 41.0246C21.3788 40.3161 21.031 39.6359 20.4228 39.2679C19.8147 38.9 19.0508 38.9075 18.45 39.2875C15.4147 40.4314 13.2987 43.2076 13 46.4375C13 51.9875 20.5 56.1625 30.5 56.1625C40.5 56.1625 48 51.9875 48 46.4375C47.7289 43.1796 45.6081 40.3681 42.55 39.2125Z" fill="white"/>
<path fill-rule="evenodd" clip-rule="evenodd" d="M28.625 47.5375V36.7375C20.3922 35.7456 14.3563 28.5132 14.8532 20.2358C15.35 11.9584 22.2077 5.5 30.5 5.5C38.7923 5.5 45.65 11.9584 46.1468 20.2358C46.6437 28.5132 40.6078 35.7456 32.375 36.7375V47.5375C32.375 48.573 31.5355 49.4125 30.5 49.4125C29.4645 49.4125 28.625 48.573 28.625 47.5375ZM41.5606 16.6028C39.7045 12.1352 35.3379 9.22734 30.5 9.23745C23.9197 9.25121 18.5888 14.5822 18.575 21.1625C18.5649 26.0003 21.4727 30.367 25.9404 32.223C30.408 34.079 35.554 33.0582 38.9749 29.6374C42.3958 26.2165 43.4166 21.0705 41.5606 16.6028Z" fill="white"/>
<path d="M24.475 23.9375C25.5105 23.9375 26.35 23.098 26.35 22.0625C26.35 19.1906 28.6781 16.8625 31.55 16.8625C32.5855 16.8625 33.425 16.023 33.425 14.9875C33.425 13.9519 32.5855 13.1125 31.55 13.1125C29.1697 13.1191 26.8895 14.071 25.211 15.7588C23.5326 17.4467 22.5934 19.7321 22.6 22.1125C22.6066 22.6031 22.8078 23.0711 23.1595 23.4133C23.5111 23.7556 23.9843 23.9441 24.475 23.9375Z" fill="white"/>
</svg>
