<svg width="138" height="24" viewBox="0 0 138 24" fill="none" xmlns="http://www.w3.org/2000/svg">
<path d="M13.8383 4.84772L14.4708 6.76439C14.7566 7.65151 15.58 8.25459 16.512 8.25939H18.5053C19.4402 8.25345 20.2714 8.85322 20.5605 9.74228C20.8495 10.6313 20.53 11.6053 19.7703 12.1502L18.1316 13.3386C17.3772 13.8862 17.0602 14.8566 17.3458 15.744L17.9783 17.6606C18.2911 18.5511 17.9857 19.5414 17.2257 20.1009C16.4657 20.6604 15.4293 20.658 14.672 20.0948L13.062 18.8969C12.3073 18.3501 11.2867 18.3501 10.532 18.8969L8.92201 20.0948C8.1689 20.646 7.14593 20.6475 6.39125 20.0984C5.63656 19.5494 5.3231 18.5756 5.61576 17.6894L6.24826 15.7727C6.53381 14.8853 6.21679 13.915 5.46243 13.3673L3.78535 12.1598C3.01034 11.6137 2.68535 10.6239 2.98582 9.72468C3.28629 8.82547 4.14106 8.22986 5.08868 8.25939H7.08201C8.00891 8.25731 8.83078 7.6631 9.12326 6.78356L9.75576 4.86689C10.0393 3.98159 10.8605 3.37939 11.7901 3.37502C12.7196 3.37066 13.5464 3.96512 13.8383 4.84772Z" fill="#FFA800"/>
<path d="M42.5883 4.84772L43.2208 6.76439C43.5066 7.65151 44.33 8.25459 45.262 8.25939H47.2553C48.1902 8.25345 49.0214 8.85322 49.3105 9.74228C49.5995 10.6313 49.28 11.6053 48.5203 12.1502L46.8816 13.3386C46.1272 13.8862 45.8102 14.8566 46.0958 15.744L46.7283 17.6606C47.0411 18.5511 46.7357 19.5414 45.9757 20.1009C45.2157 20.6604 44.1793 20.658 43.422 20.0948L41.812 18.8969C41.0573 18.3501 40.0367 18.3501 39.282 18.8969L37.672 20.0948C36.9189 20.646 35.8959 20.6475 35.1412 20.0984C34.3866 19.5494 34.0731 18.5756 34.3658 17.6894L34.9983 15.7727C35.2838 14.8853 34.9668 13.915 34.2124 13.3673L32.5353 12.1598C31.7603 11.6137 31.4354 10.6239 31.7358 9.72468C32.0363 8.82547 32.8911 8.22986 33.8387 8.25939H35.832C36.7589 8.25731 37.5808 7.6631 37.8733 6.78356L38.5058 4.86689C38.7893 3.98159 39.6105 3.37939 40.5401 3.37502C41.4696 3.37066 42.2964 3.96512 42.5883 4.84772Z" fill="#FFA800"/>
<path d="M71.3383 4.84772L71.9708 6.76439C72.2566 7.65151 73.08 8.25459 74.012 8.25939H76.0053C76.9402 8.25345 77.7714 8.85322 78.0605 9.74228C78.3495 10.6313 78.03 11.6053 77.2703 12.1502L75.6316 13.3386C74.8772 13.8862 74.5602 14.8566 74.8458 15.744L75.4783 17.6606C75.7911 18.5511 75.4857 19.5414 74.7257 20.1009C73.9657 20.6604 72.9293 20.658 72.172 20.0948L70.562 18.8969C69.8073 18.3501 68.7867 18.3501 68.032 18.8969L66.422 20.0948C65.6689 20.646 64.6459 20.6475 63.8912 20.0984C63.1366 19.5494 62.8231 18.5756 63.1158 17.6894L63.7483 15.7727C64.0338 14.8853 63.7168 13.915 62.9624 13.3673L61.2853 12.1598C60.5103 11.6137 60.1854 10.6239 60.4858 9.72468C60.7863 8.82547 61.6411 8.22986 62.5887 8.25939H64.582C65.5089 8.25731 66.3308 7.6631 66.6233 6.78356L67.2558 4.86689C67.5393 3.98159 68.3605 3.37939 69.2901 3.37502C70.2196 3.37066 71.0464 3.96512 71.3383 4.84772Z" fill="#FFA800"/>
<path d="M100.088 4.84772L100.721 6.76439C101.007 7.65151 101.83 8.25459 102.762 8.25939H104.755C105.69 8.25345 106.521 8.85322 106.81 9.74228C107.1 10.6313 106.78 11.6053 106.02 12.1502L104.382 13.3386C103.627 13.8862 103.31 14.8566 103.596 15.744L104.228 17.6606C104.541 18.5511 104.236 19.5414 103.476 20.1009C102.716 20.6604 101.679 20.658 100.922 20.0948L99.312 18.8969C98.5573 18.3501 97.5367 18.3501 96.782 18.8969L95.172 20.0948C94.4189 20.646 93.3959 20.6475 92.6412 20.0984C91.8866 19.5494 91.5731 18.5756 91.8658 17.6894L92.4983 15.7727C92.7838 14.8853 92.4668 13.915 91.7124 13.3673L90.0353 12.1598C89.2603 11.6137 88.9354 10.6239 89.2358 9.72468C89.5363 8.82547 90.3911 8.22986 91.3387 8.25939H93.332C94.2589 8.25731 95.0808 7.6631 95.3733 6.78356L96.0058 4.86689C96.2893 3.98159 97.1105 3.37939 98.0401 3.37502C98.9696 3.37066 99.7964 3.96512 100.088 4.84772Z" fill="#FFA800"/>
<path d="M128.838 4.84772L129.471 6.76439C129.757 7.65151 130.58 8.25459 131.512 8.25939H133.505C134.44 8.25345 135.271 8.85322 135.56 9.74228C135.85 10.6313 135.53 11.6053 134.77 12.1502L133.132 13.3386C132.377 13.8862 132.06 14.8566 132.346 15.744L132.978 17.6606C133.291 18.5511 132.986 19.5414 132.226 20.1009C131.466 20.6604 130.429 20.658 129.672 20.0948L128.062 18.8969C127.307 18.3501 126.287 18.3501 125.532 18.8969L123.922 20.0948C123.169 20.646 122.146 20.6475 121.391 20.0984C120.637 19.5494 120.323 18.5756 120.616 17.6894L121.248 15.7727C121.534 14.8853 121.217 13.915 120.462 13.3673L118.785 12.1598C118.01 11.6137 117.685 10.6239 117.986 9.72468C118.286 8.82547 119.141 8.22986 120.089 8.25939H122.082C123.009 8.25731 123.831 7.6631 124.123 6.78356L124.756 4.86689C125.039 3.98159 125.86 3.37939 126.79 3.37502C127.72 3.37066 128.546 3.96512 128.838 4.84772Z" fill="#FFA800"/>
</svg>
