<svg width="445" height="454" viewBox="0 0 445 454" fill="none" xmlns="http://www.w3.org/2000/svg">
<path d="M443.528 298.597C442.617 294.036 440.72 289.939 437.837 286.305C431.69 278.497 423.115 271.848 413.401 269.683C410.214 269.22 407.102 268.756 403.915 268.214C402.473 268.137 401.032 268.215 399.59 268.292C401.259 265.277 402.929 262.184 404.446 259.092C409.303 249.274 412.87 239.146 416.209 228.632C417.044 222.756 416.285 217.036 413.932 211.624C411.352 205.671 407.71 200.646 402.777 196.471C397.541 191.987 391.546 188.818 384.868 186.962C380.087 185.648 375.306 185.261 370.449 185.725L388.814 165.006C390.483 162.687 392.153 160.445 393.822 158.126C396.023 154.183 396.858 150.085 396.478 145.756C396.858 142.818 396.478 139.958 395.34 137.252C394.429 132.691 392.532 128.593 389.649 124.96C385.475 119.703 380.39 115.451 374.623 112.049C370.146 109.498 365.441 107.952 360.432 107.565C355.879 106.483 351.25 106.483 346.621 107.642C346.545 107.642 346.393 107.72 346.317 107.72C346.697 107.333 347.076 107.024 347.455 106.637C364.454 90.8663 381.225 74.7859 397.389 58.1643C400.728 55.1492 402.853 51.5157 403.763 47.2636C405.509 43.2435 405.964 39.0688 405.129 34.6622C404.371 31.8017 403.612 29.0186 402.777 26.1581C401.032 21.6742 398.451 17.8087 394.961 14.5617C392.912 11.8558 390.407 9.69117 387.448 8.14497C383.426 4.89797 378.873 2.7333 373.788 1.49635C370.601 1.03249 367.49 0.568632 364.302 0.0274653C358.231 -0.204464 352.464 1.03249 347.076 3.73833C320.592 15.3348 296.156 31.2605 272.252 47.5729C265.042 52.4434 257.909 57.4685 250.776 62.4936C251.838 61.5659 252.901 60.5609 253.963 59.6332C255.633 57.3139 257.302 55.0719 258.972 52.7526C261.172 48.8098 262.007 44.7124 261.628 40.3831C262.007 37.4453 261.628 34.5849 260.489 31.879C259.579 27.3178 257.681 23.2203 254.798 19.5868C250.624 14.3297 245.54 10.0777 239.772 6.67609C235.295 4.12487 230.59 2.57868 225.581 2.19213C221.028 1.1098 216.399 1.1098 211.77 2.26944C195.758 6.59878 179.973 11.9331 164.493 18.0406C151.516 23.143 138.843 29.0186 126.473 35.5899C114.028 42.1612 101.962 49.5056 90.3512 57.4685C76.6915 66.823 63.2596 76.7959 50.6624 87.6192C38.6723 97.9014 27.3652 108.957 16.6651 120.785C13.3261 123.8 11.2013 127.434 10.2906 131.686C8.54524 135.706 8.08992 139.881 8.92467 144.287C9.45588 148.926 10.9736 153.1 13.5538 156.811C15.6027 161.218 18.5623 164.929 22.4325 167.944C25.2403 169.877 28.0481 171.809 30.8559 173.742C36.7751 176.912 43.0737 178.69 49.8276 178.922C52.4837 178.922 55.2156 178.69 57.9475 178.226C49.2964 192.374 41.1007 206.831 33.4361 221.597C23.3432 240.924 14.1609 260.638 5.81331 280.816C4.7509 283.29 3.76437 285.841 2.77784 288.315C0.577128 292.258 -0.257626 296.355 0.121807 300.685C-0.333513 305.091 0.501241 309.343 2.39841 313.441C3.91615 316.146 5.43388 318.775 6.95162 321.481C9.83531 325.656 13.402 328.98 17.7275 331.454C20.3836 333.696 23.3432 335.319 26.6822 336.247C31.1595 338.412 35.8645 339.571 40.873 339.571C49.2205 339.494 59.0858 337.716 64.9291 330.99C66.6745 328.98 68.4199 327.047 70.1653 325.037C70.1653 325.192 70.1653 325.346 70.1653 325.424C69.71 329.83 70.5447 334.082 72.4419 338.18C73.9596 340.886 75.4774 343.514 76.9951 346.22C79.8788 350.395 83.4455 353.719 87.771 356.193C90.427 358.435 93.3866 360.058 96.7256 360.986C101.203 363.151 105.908 364.31 110.916 364.31C119.34 364.233 129.053 362.378 134.973 355.729C141.119 348.848 147.418 341.968 153.792 335.242C154.02 338.257 154.779 341.195 156.145 344.055C157.663 346.761 159.18 349.39 160.698 352.095C163.582 356.27 167.149 359.594 171.474 362.068C174.13 364.31 177.09 365.934 180.429 366.862C184.906 369.026 189.611 370.186 194.62 370.186C197.655 369.954 200.69 369.645 203.65 369.413C209.417 368.253 214.426 365.625 218.676 361.605C225.961 356.116 233.322 350.704 240.683 345.37C251.99 337.329 263.373 329.444 274.832 321.713C267.85 333.232 261.02 344.906 254.342 356.657C245.843 371.809 237.647 387.117 229.755 402.656C227.554 406.599 226.72 410.696 227.099 415.025C226.644 419.432 227.479 423.684 229.376 427.782C230.893 430.487 232.411 433.116 233.929 435.822C236.813 439.996 240.379 443.321 244.705 445.795C247.361 448.037 250.32 449.66 253.659 450.588C258.137 452.753 262.842 453.912 267.85 453.912C276.35 453.835 285.76 451.902 291.906 445.331C321.73 413.402 355.575 385.88 390.483 359.904C399.134 353.487 407.861 347.148 416.588 340.808C420.99 337.639 425.391 334.546 429.717 331.376C433.739 329.521 436.85 326.738 439.051 323.027C442.01 319.78 443.68 315.992 444.211 311.508C445.425 306.947 445.046 302.695 443.528 298.597Z" fill="black"/>
</svg>
