<svg width="50" height="51" viewBox="0 0 50 51" fill="none" xmlns="http://www.w3.org/2000/svg">
<rect y="0.652344" width="50" height="50" rx="10" fill="#65B741"/>
<path d="M19.7714 17.8398C20.493 17.8398 21.1591 17.8954 21.7697 18.0619C22.3803 18.1729 22.8798 18.3949 23.3239 18.6725C23.768 18.95 24.101 19.3385 24.323 19.8381C24.5451 20.3377 24.6561 20.9482 24.6561 21.6143C24.6561 22.3914 24.4895 23.0575 24.101 23.5571C23.768 24.0566 23.2129 24.5007 22.5468 24.8337C23.4904 25.1113 24.212 25.6108 24.6561 26.2769C25.1001 26.943 25.3777 27.7756 25.3777 28.7192C25.3777 29.4963 25.2111 30.1624 24.9336 30.7175C24.6561 31.2726 24.212 31.7721 23.7124 32.1052C23.2129 32.4382 22.6023 32.7158 21.9362 32.8823C21.2701 33.0488 20.604 33.1598 19.938 33.1598H12.5V17.8398H19.7714ZM19.3274 24.0566C19.938 24.0566 20.4375 23.8901 20.8261 23.6126C21.2146 23.3351 21.3811 22.8355 21.3811 22.2249C21.3811 21.8919 21.3256 21.5588 21.2146 21.3368C21.1036 21.1148 20.9371 20.9482 20.7151 20.7817C20.493 20.6707 20.271 20.5597 19.9935 20.5042C19.7159 20.4487 19.4384 20.4487 19.1054 20.4487H15.8859V24.0566H19.3274ZM19.4939 30.6065C19.8269 30.6065 20.16 30.551 20.4375 30.4955C20.7151 30.44 20.9926 30.329 21.2146 30.1624C21.4367 29.9959 21.6032 29.8294 21.7697 29.5519C21.8807 29.2743 21.9917 28.9413 21.9917 28.5527C21.9917 27.7756 21.7697 27.2206 21.3256 26.832C20.8816 26.499 20.271 26.3324 19.5494 26.3324H15.8859V30.6065H19.4939ZM30.2068 30.551C30.6508 30.995 31.3169 31.2171 32.205 31.2171C32.8156 31.2171 33.3707 31.0505 33.8148 30.773C34.2588 30.44 34.5363 30.1069 34.6474 29.7739H37.3672C36.9232 31.1061 36.2571 32.0497 35.369 32.6603C34.4808 33.2153 33.4262 33.5484 32.1495 33.5484C31.2614 33.5484 30.4843 33.3819 29.7627 33.1043C29.0411 32.8268 28.4861 32.4382 27.9865 31.8832C27.4869 31.3836 27.0984 30.773 26.8764 30.0514C26.5988 29.3298 26.4878 28.5527 26.4878 27.6646C26.4878 26.832 26.5988 26.0549 26.8764 25.3333C27.1539 24.6117 27.5424 24.0011 28.042 23.4461C28.5416 22.9465 29.1521 22.5024 29.8182 22.2249C30.5398 21.9474 31.2614 21.7809 32.1495 21.7809C33.0932 21.7809 33.9258 21.9474 34.6474 22.3359C35.369 22.7245 35.924 23.1685 36.3681 23.8346C36.8121 24.4452 37.1452 25.1668 37.3672 25.9439C37.4782 26.721 37.5337 27.4981 37.4782 28.3862H29.4297C29.4297 29.2743 29.7627 30.1069 30.2068 30.551ZM33.7037 24.7227C33.3152 24.3342 32.7046 24.1122 31.983 24.1122C31.4834 24.1122 31.0949 24.2232 30.7619 24.3897C30.4288 24.5562 30.2068 24.7782 29.9848 25.0003C29.7627 25.2223 29.6517 25.4998 29.5962 25.7774C29.5407 26.0549 29.4852 26.2769 29.4852 26.499H34.4808C34.3698 25.6664 34.0923 25.1113 33.7037 24.7227ZM28.8191 18.8945H35.0359V20.3932H28.8191V18.8945Z" fill="white"/>
</svg>
