<svg width="50" height="51" viewBox="0 0 50 51" fill="none" xmlns="http://www.w3.org/2000/svg">
<path d="M50 20.6523C50 11.2243 50 6.51021 47.0711 3.58128C44.1421 0.652344 39.4281 0.652344 30 0.652344H20C10.5719 0.652344 5.85786 0.652344 2.92893 3.58128C0 6.51021 0 11.2243 0 20.6523V30.6523C0 40.0804 0 44.7945 2.92893 47.7234C5.85786 50.6523 10.5719 50.6523 20 50.6523H30C39.4281 50.6523 44.1421 50.6523 47.0711 47.7234C50 44.7945 50 40.0804 50 30.6523V20.6523Z" fill="#65B741"/>
<path d="M25 13.1523C18.1 13.1523 12.5 18.7523 12.5 25.6523C12.5 32.5523 18.1 38.1523 25 38.1523C31.875 38.1523 37.5 32.5523 37.5 25.6523C37.5 18.7523 31.875 13.1523 25 13.1523ZM33.25 18.9023C34.75 20.7273 35.625 23.0273 35.675 25.5523C35.325 25.4773 31.8 24.7773 28.25 25.2023C28.175 25.0273 28.1 24.8273 28.025 24.6523C27.8 24.1273 27.575 23.6023 27.325 23.1023C31.225 21.5273 33.025 19.2023 33.25 18.9023ZM25 15.0023C27.7 15.0023 30.2 16.0273 32.075 17.6773C31.875 17.9523 30.275 20.1023 26.475 21.5273C24.725 18.3023 22.775 15.6773 22.5 15.2773C23.3 15.1023 24.125 15.0023 25 15.0023ZM20.45 16.0023C20.725 16.3773 22.625 19.0273 24.4 22.1773C19.4 23.5023 15 23.4773 14.525 23.4773C15.25 20.1523 17.475 17.4023 20.45 16.0023ZM14.325 25.6773C14.325 25.5773 14.325 25.4523 14.325 25.3523C14.775 25.3773 19.975 25.4273 25.3 23.8273C25.6 24.4273 25.9 25.0273 26.175 25.6523C26.05 25.7023 25.9 25.7273 25.75 25.7773C20.25 27.5523 17.325 32.4023 17.075 32.8023C15.35 30.9023 14.325 28.4023 14.325 25.6773ZM25 36.3273C22.525 36.3273 20.25 35.4773 18.45 34.0773C18.65 33.6773 20.8 29.5023 26.825 27.4023C26.85 27.3773 26.875 27.3773 26.9 27.3773C28.4 31.2773 29.025 34.5273 29.175 35.4773C27.9 36.0273 26.475 36.3273 25 36.3273ZM30.95 34.5023C30.85 33.8523 30.275 30.7273 28.875 26.9023C32.225 26.3773 35.15 27.2523 35.525 27.3523C35.05 30.3273 33.35 32.9023 30.95 34.5023Z" fill="white"/>
</svg>
