<svg width="50" height="51" viewBox="0 0 50 51" fill="none" xmlns="http://www.w3.org/2000/svg">
<path d="M50 20.6523C50 11.2243 50 6.51021 47.0711 3.58128C44.1421 0.652344 39.4281 0.652344 30 0.652344H20C10.5719 0.652344 5.85786 0.652344 2.92893 3.58128C0 6.51021 0 11.2243 0 20.6523V30.6523C0 40.0804 0 44.7945 2.92893 47.7234C5.85786 50.6523 10.5719 50.6523 20 50.6523H30C39.4281 50.6523 44.1421 50.6523 47.0711 47.7234C50 44.7945 50 40.0804 50 30.6523V20.6523Z" fill="#65B741"/>
<path d="M18.125 38.1523H12.8125V21.4336H18.125V38.1523ZM15.4688 19.0898C13.75 19.0898 12.5 17.8398 12.5 16.1211C12.5 14.4023 13.9063 13.1523 15.4688 13.1523C17.1875 13.1523 18.4375 14.4023 18.4375 16.1211C18.4375 17.8398 17.1875 19.0898 15.4688 19.0898ZM37.5 38.1523H32.1875V29.0898C32.1875 26.4336 31.0937 25.6523 29.5312 25.6523C27.9687 25.6523 26.4062 26.9023 26.4062 29.2461V38.1523H21.0938V21.4336H26.0937V23.7773C26.5625 22.6836 28.4375 20.9648 31.0937 20.9648C34.0625 20.9648 37.1875 22.6836 37.1875 27.8398V38.1523H37.5Z" fill="white"/>
</svg>
