<svg width="51" height="51" viewBox="0 0 51 51" fill="none" xmlns="http://www.w3.org/2000/svg">
<g clip-path="url(#clip0_72_365)">
<rect x="0.5" y="0.652344" width="50" height="50" rx="10" fill="white"/>
<path d="M7.64286 0.652344C3.70313 0.652344 0.5 3.85547 0.5 7.7952V43.5095C0.5 47.4492 3.70313 50.6523 7.64286 50.6523H43.3571C47.2969 50.6523 50.5 47.4492 50.5 43.5095V7.7952C50.5 3.85547 47.2969 0.652344 43.3571 0.652344H7.64286ZM40.8013 10.0273L29.2165 23.264L42.8437 41.2773H32.1741L23.8259 30.351L14.2612 41.2773H8.95982L21.3482 27.1144L8.27902 10.0273H19.2165L26.7723 20.0162L35.5 10.0273H40.8013ZM36.5826 38.1077L17.6205 13.0296H14.4621L33.6362 38.1077H36.5714H36.5826Z" fill="#65B741"/>
</g>
<defs>
<clipPath id="clip0_72_365">
<rect x="0.5" y="0.652344" width="50" height="50" rx="10" fill="white"/>
</clipPath>
</defs>
</svg>
