<svg width="17" height="17" viewBox="0 0 17 17" fill="none" xmlns="http://www.w3.org/2000/svg">
<path d="M6.23462 4.33789C5.96129 4.33789 5.73462 4.11122 5.73462 3.83789V1.83789C5.73462 1.56456 5.96129 1.33789 6.23462 1.33789C6.50795 1.33789 6.73462 1.56456 6.73462 1.83789V3.83789C6.73462 4.11122 6.50795 4.33789 6.23462 4.33789Z" fill="#292D32"/>
<path d="M11.2346 4.33789C10.9613 4.33789 10.7346 4.11122 10.7346 3.83789V1.83789C10.7346 1.56456 10.9613 1.33789 11.2346 1.33789C11.508 1.33789 11.7346 1.56456 11.7346 1.83789V3.83789C11.7346 4.11122 11.508 4.33789 11.2346 4.33789Z" fill="#292D32"/>
<path d="M8.73452 9.89789C9.08119 9.89789 9.33452 9.69122 9.33452 9.36456C9.33452 9.03122 9.08119 8.83789 8.73452 8.83789C8.38785 8.83789 8.13452 9.03122 8.13452 9.36456C8.13452 9.69122 8.38785 9.89789 8.73452 9.89789Z" fill="#292D32"/>
<path d="M8.73461 11.8386C9.15435 11.8386 9.49461 11.561 9.49461 11.2186C9.49461 10.8762 9.15435 10.5986 8.73461 10.5986C8.31487 10.5986 7.97461 10.8762 7.97461 11.2186C7.97461 11.561 8.31487 11.8386 8.73461 11.8386Z" fill="#292D32"/>
<path d="M13.7814 3.50456C13.3414 3.17789 12.708 3.49122 12.708 4.04456V4.11122C12.708 4.89122 12.148 5.61122 11.368 5.69122C10.468 5.78456 9.70803 5.07789 9.70803 4.19789V3.50456C9.70803 3.13789 9.40803 2.83789 9.04137 2.83789H8.42803C8.06137 2.83789 7.76137 3.13789 7.76137 3.50456V4.19789C7.76137 4.72456 7.48803 5.19122 7.0747 5.45122C7.0147 5.49122 6.94803 5.52456 6.88137 5.55789C6.82137 5.59122 6.7547 5.61789 6.68137 5.63789C6.60137 5.66456 6.5147 5.68456 6.42137 5.69122C6.3147 5.70456 6.20803 5.70456 6.10137 5.69122C6.00803 5.68456 5.92137 5.66456 5.84137 5.63789C5.7747 5.61789 5.70803 5.59122 5.64137 5.55789C5.5747 5.52456 5.50803 5.49122 5.44803 5.45122C5.02803 5.15789 4.76137 4.65122 4.76137 4.11122V4.04456C4.76137 3.53122 4.2147 3.22456 3.78137 3.44456C3.7747 3.45122 3.76803 3.45122 3.76137 3.45789C3.7347 3.47122 3.7147 3.48456 3.68803 3.50456C3.66803 3.52456 3.64137 3.53789 3.62137 3.55789C3.4347 3.70456 3.26803 3.87122 3.12803 4.05122C3.0547 4.13122 2.9947 4.21789 2.94137 4.30456C2.9347 4.31122 2.92803 4.31789 2.92137 4.33122C2.86137 4.41789 2.80803 4.51789 2.76137 4.61122C2.74803 4.62456 2.74137 4.63122 2.74137 4.64456C2.70137 4.72456 2.66137 4.80456 2.6347 4.89122C2.6147 4.92456 2.60803 4.95122 2.5947 4.98456C2.5547 5.08456 2.52803 5.18456 2.50137 5.28456C2.4747 5.37789 2.4547 5.47789 2.44137 5.57789C2.42803 5.65122 2.42137 5.72456 2.4147 5.80456C2.40803 5.89789 2.40137 5.99122 2.40137 6.08456V11.9246C2.40137 13.7179 3.8547 15.1712 5.64803 15.1712H11.8214C13.6147 15.1712 15.068 13.7179 15.068 11.9246V6.08456C15.068 5.02456 14.5614 4.09789 13.7814 3.50456ZM8.7347 12.6712C7.70137 12.6712 7.06803 12.1579 7.06803 11.3312C7.06803 10.8779 7.30137 10.4846 7.70803 10.2512C7.4147 10.0446 7.22137 9.73789 7.22137 9.31789C7.22137 8.45122 7.9147 8.00456 8.7347 8.00456C9.5547 8.00456 10.2414 8.45122 10.2414 9.31789C10.2414 9.73789 10.0547 10.0446 9.7547 10.2512C10.168 10.4846 10.4014 10.8779 10.4014 11.3312C10.4014 12.1579 9.76137 12.6712 8.7347 12.6712Z" fill="#292D32"/>
</svg>
